<svg width="37" height="38" fill="none" xmlns="http://www.w3.org/2000/svg"><g clip-path="url(#a)" fill="#61646B"><path d="M18.013 8.981c4.435-.004 8.442 3.198 9.318 7.498.499 2.445.065 4.809-.79 7.114-.215.58-.508 1.138-.667 1.731-.252.938.127 1.694.981 2.153.082.044.167.081.247.126.386.217.523.57.363.929-.165.366-.562.527-.965.391-1.506-.509-2.464-2.113-2.163-3.677.084-.436.235-.867.416-1.273.855-1.924 1.296-3.918 1.24-6.038-.086-3.294-2.8-6.545-6.209-7.294-2.199-.483-4.27-.226-6.05 1.275-1.352 1.14-2.018 2.674-2.383 4.37-.156.72-.315 1.453-.599 2.127-.583 1.38-1.718 2.018-3.185 2.104-.443.027-.777-.249-.813-.64-.04-.425.23-.78.694-.798 1.269-.05 1.884-.8 2.174-1.935.255-.996.433-2.023.798-2.978 1.273-3.334 4.026-5.18 7.592-5.184h.001z"/><path d="M22.035 18.359c-.264 3.875-1.575 7.275-4.584 9.88-.99.858-2.134 1.455-3.384 1.851a5.827 5.827 0 0 0-.669.244c-.454.206-.535.394-.414.882.118.48-.067.833-.504.962-.408.12-.799-.107-.952-.554-.327-.955-.033-1.838.822-2.378.276-.175.582-.324.894-.414 2.665-.773 4.525-2.497 5.778-4.913 1.007-1.942 1.568-4.003 1.466-6.212-.036-.768-.366-1.402-.954-1.889-.481-.397-1.018-.616-1.65-.364-.66.262-1.054.743-1.127 1.452-.078.75-.114 1.502-.193 2.25-.264 2.502-1.672 4.221-3.781 5.434-1.138.654-2.367 1.04-3.693 1.062-.535.01-.879-.254-.9-.68-.021-.446.317-.716.867-.763 2.527-.22 4.467-1.365 5.612-3.681.456-.922.419-1.952.499-2.951.028-.356.05-.714.115-1.063.251-1.355 1.11-2.18 2.4-2.513 1.361-.352 2.46.21 3.35 1.217.79.891 1.041 1.967 1.001 3.14z"/><path d="M24.834 18.404c-.028 1.45-.56 3.04-1.11 4.628-.341.984-.653 1.979-.961 2.975-.07.224-.082.469-.091.704-.02.499.19.858.66 1.069.522.233.695.58.523.987-.17.403-.626.544-1.115.346-1.096-.445-1.747-1.435-1.564-2.613.147-.945.404-1.882.701-2.793.484-1.48 1.076-2.92 1.357-4.466.541-2.977-1.278-5.092-2.964-5.902-2.055-.989-5.053-.757-6.127 2.576-.225.697-.281 1.448-.43 2.17-.538 2.6-2.53 4.466-5.173 4.857-.144.022-.287.057-.43.066-.406.026-.75-.24-.804-.61-.058-.397.162-.712.58-.812.334-.08.678-.122 1.006-.217 1.994-.58 3.222-2.087 3.419-4.154.128-1.355.53-2.623 1.387-3.697 1.579-1.98 3.668-2.49 6.045-1.914 2.937.712 5.108 3.546 5.09 6.8h.001z"/><path d="M7.306 15.066c.106-.332.233-.805.406-1.26 1.487-3.91 4.232-6.398 8.372-7.18 4.518-.855 9.65 1.064 12.33 5.687.6 1.034 1.083 2.116 1.365 3.28.101.421-.112.783-.505.896a.769.769 0 0 1-.931-.473c-.038-.098-.06-.202-.09-.303-.537-1.852-1.469-3.48-2.823-4.847-1.629-1.644-3.63-2.594-5.909-2.89-2.992-.387-5.664.383-7.903 2.454-1.429 1.322-2.266 3.001-2.795 4.848-.145.507-.414.728-.865.685-.396-.038-.671-.353-.652-.896v-.001z"/><path d="M18.116 3.87c3.62.027 6.813 1.177 9.512 3.62.381.344.433.76.15 1.076-.293.329-.76.34-1.134.028-.05-.042-.097-.089-.147-.133-.926-.82-1.93-1.534-3.07-2.01-4.802-2.002-9.26-1.387-13.36 1.817-.104.08-.2.174-.314.239-.34.19-.778.102-1-.192-.24-.317-.213-.723.141-.982.798-.585 1.586-1.194 2.442-1.681 2.094-1.193 4.365-1.78 6.78-1.781zM19.476 17.99c-.12 2.486-.754 4.782-2.313 6.757-1.742 2.206-4.11 3.285-6.82 3.722a.718.718 0 0 1-.812-.593c-.067-.413.156-.713.602-.836.85-.234 1.732-.395 2.541-.73 2.847-1.18 4.422-3.414 5.026-6.37.163-.797.19-1.623.258-2.438.029-.347.138-.613.472-.755a.739.739 0 0 1 1.042.622c.017.21.003.423.003.62zM36.98 7.91h-1.613c-.007-.135-.021-.273-.021-.412-.002-1.347-.041-2.697.012-4.043.046-1.162-.746-1.855-1.794-1.812-1.332.054-2.668.013-4.003.013h-.46V.025c.124-.007.25-.02.377-.022 1.426-.001 2.854-.004 4.28 0 1.863.005 3.233 1.368 3.238 3.222.005 1.427.002 2.854 0 4.281 0 .129-.012.257-.018.403h.002zM7.91.029v1.606c-.135.007-.275.02-.414.02-1.388.002-2.776-.002-4.163.002-1.07.003-1.67.599-1.675 1.665-.005 1.374-.001 2.749-.001 4.123v.456H.027C.017 7.776.004 7.65.003 7.523c-.002-1.428-.006-2.854 0-4.282C.009 1.38 1.36.016 3.226.004c1.507-.01 3.013 0 4.52 0 .039 0 .078.012.164.025zM.035 29.086h1.62v.432c0 1.374 0 2.749.002 4.123.003 1.115.595 1.7 1.718 1.7 1.361.002 2.723 0 4.084 0h.447v1.631c-.128.01-.243.023-.357.023-1.454.002-2.907.007-4.361 0-1.793-.01-3.168-1.37-3.182-3.157-.013-1.533-.002-3.066 0-4.6 0-.037.014-.076.03-.154v.002zM29.087 36.998v-1.655h4.596c1.059-.002 1.66-.61 1.662-1.678V29.094h1.635c.007.144.018.273.018.401.002 1.414.004 2.828 0 4.242-.005 1.891-1.359 3.254-3.24 3.26-1.428.005-2.855.002-4.282.002h-.39v-.001zM24.188 32.327c-1.048-.018-1.97-.381-2.79-1-.464-.348-.9-.735-1.322-1.134-.234-.221-.452-.262-.745-.15-1.462.56-2.723 1.437-3.913 2.434-.181.152-.422.279-.653.315-.327.052-.58-.13-.714-.446-.139-.33-.04-.622.223-.812 1.045-.757 2.078-1.538 3.173-2.217.571-.354 1.253-.54 1.9-.757.543-.184 1.044-.03 1.474.34.43.37.848.755 1.284 1.117.803.664 1.7.983 2.758.77.466-.093.843.18.912.602.06.366-.21.726-.646.813-.309.062-.626.086-.94.126z"/><path d="M22.371 34.628c-.082-.044-.269-.13-.44-.242-.476-.307-.92-.672-1.421-.927-1.026-.523-2.006-.377-2.863.386-.362.323-.664.714-.993 1.073-.264.287-.65.368-.969.192-.317-.175-.432-.45-.36-.8a.468.468 0 0 1 .07-.183c.888-1.22 1.936-2.204 3.524-2.392.887-.104 1.718.099 2.477.528.57.323 1.096.73 1.624 1.122.26.193.314.489.197.787-.124.316-.38.46-.846.456zM30.273 19.706a13.23 13.23 0 0 1-1.281 5.554c-.153.324-.359.556-.732.581-.593.041-.966-.53-.697-1.087.628-1.298 1.04-2.658 1.13-4.098.042-.682.019-1.372-.015-2.056-.027-.542.184-.9.647-.962.459-.06.797.223.861.764.052.431.06.869.087 1.303z"/></g><defs><clipPath id="a"><path fill="#fff" transform="translate(0 .5)" d="M0 0h37v37H0z"/></clipPath></defs></svg>