<svg width="30" height="33" fill="none" xmlns="http://www.w3.org/2000/svg"><g clip-path="url(#a)"><path d="M5.288 2.128c.07 2.421 1.974 4.144 4.286 4.157 2.161.013 4.324.039 6.484-.034 2.276-.075 3.833-1.69 3.976-3.981.002-.04.014-.08.033-.185 1.374.08 2.821-.322 4.045.7.745.62 1.16 1.424 1.167 2.38.023 3.058.01 6.116.008 9.173 0 .067-.02.133-.028.177-.797-.16-1.574-.365-2.364-.468-2.222-.29-4.337.1-6.302 1.17-.699.38-1.318.908-1.989 1.345-.193.126-.44.236-.663.238-2.121.017-4.24.003-6.361.01-.835.003-1.356.673-1.112 1.402.151.454.574.723 1.189.724 1.414.005 2.827 0 4.24 0h.652c-.784 1.317-1.297 2.675-1.526 4.184H9.317c-.582 0-1.165-.005-1.747.002-.67.008-1.167.453-1.168 1.037-.002.612.459 1.03 1.155 1.033 1.012.004 2.023-.009 3.035.008.12.002.337.128.344.21.122 1.377.472 2.69 1.102 3.979-.12.01-.193.024-.267.024-2.8.001-5.6.01-8.399 0-1.627-.005-2.853-.898-3.254-2.378-.095-.355-.113-.738-.113-1.11C0 20.406.003 14.886.003 9.366c0-1.287-.01-2.574.005-3.86.019-1.75 1.077-3.11 2.73-3.356.823-.123 1.68-.021 2.55-.021zM12.7 12.597v.003c1.73 0 3.461.008 5.192-.003.7-.005 1.138-.428 1.137-1.05 0-.617-.449-1.057-1.136-1.058-3.46-.007-6.923-.005-10.384.001-.631.002-1.105.473-1.107 1.056-.003.586.473 1.047 1.106 1.049 1.73.006 3.461.002 5.192.002z" fill="#D71921"/><path d="M21.57 33c-4.727-.02-8.502-3.793-8.47-8.464.034-4.702 3.816-8.43 8.53-8.409 4.603.022 8.384 3.836 8.37 8.447-.012 4.649-3.812 8.445-8.43 8.426zm1.026-11.384h.003c0-.747.003-1.494-.001-2.24-.004-.658-.42-1.122-1.014-1.145-.606-.023-1.076.44-1.08 1.113-.01 1.715-.018 3.431.01 5.146.005.277.129.616.317.815a53.52 53.52 0 0 0 2.616 2.61c.211.195.599.28.903.277.4-.005.683-.298.81-.678.14-.414.034-.795-.274-1.107-.683-.688-1.38-1.363-2.05-2.062a.882.882 0 0 1-.228-.53c-.026-.732-.01-1.466-.01-2.199h-.002z" fill="#191919"/><path d="M12.62 4.188c-1.038 0-2.076.006-3.115-.001-1.19-.009-2.087-.883-2.115-2.05A2.067 2.067 0 0 1 9.44.017c2.159-.025 4.318-.022 6.476.006 1.146.015 2.036.988 2.012 2.11a2.077 2.077 0 0 1-2.07 2.055c-1.08.013-2.159.003-3.238.003v-.003z" fill="#D71921"/></g><defs><clipPath id="a"><path fill="#fff" d="M0 0h30v33H0z"/></clipPath></defs></svg>