<svg width="38" height="38" fill="none" xmlns="http://www.w3.org/2000/svg"><path d="M21.339 21.516c1.892 0 3.773-.096 5.64.025 2.052.135 3.296 1.816 3.193 3.967-.123 2.542-1.478 4.293-3.455 5.627-4.683 3.163-12.176 3.085-16.791-.177-1.96-1.383-3.25-3.205-3.22-5.75.03-2.446 1.682-3.998 4.56-3.69.189.02.353.238.539.346 1.23.726 2.462 1.445 3.695 2.168.233.137.5.238.695.42 1.169 1.103 2.316 1.35 3.535.73 1.257-.638 1.775-1.753 1.576-3.377-.007-.054.011-.11.035-.29l-.002.001zM18.424 8.598c2.751-.007 5.028 1.823 5.707 4.588.635 2.587-.61 5.367-2.962 6.632-.457.246-.833.363-1.367.043-.882-.526-1.83-.435-2.781-.013-.342.152-.868.167-1.196.005-2.406-1.186-3.695-4.007-3.095-6.64.619-2.71 2.962-4.612 5.692-4.619l.002.004z" fill="#D71921"/><path d="M11.602 14.567c.01 2.982 1.818 5.59 4.594 6.542.29.1.743.022 1.003-.153.927-.627 2.11-.529 2.757.309.67.864.53 2.099-.312 2.788-.843.689-1.954.537-2.742-.326a2.055 2.055 0 0 0-.859-.568c-4.257-1.308-7.022-5.604-6.313-9.845.786-4.706 4.514-7.866 9.11-7.72 4.454.14 8.308 4.093 8.396 8.608.017.811-.337 1.302-.955 1.326-.597.024-.962-.442-1.003-1.28-.193-3.876-3.236-6.763-7.03-6.67-3.729.09-6.658 3.17-6.646 6.987v.002z" fill="#fff"/></svg>