<svg width="30" height="25" fill="none" xmlns="http://www.w3.org/2000/svg"><g clip-path="url(#a)"><path d="M6.06 19.72H3.53A3.53 3.53 0 0 1 0 16.19v-3.8a3.53 3.53 0 0 1 3.53-3.53h2.53c.55 0 1 .45 1 1v8.86c0 .55-.45 1-1 1zm-2.53-8.86c-.84 0-1.53.69-1.53 1.53v3.8c0 .84.69 1.53 1.53 1.53h1.53v-6.86H3.53zM26.31 19.72h-2.53c-.55 0-1-.45-1-1V9.86c0-.55.45-1 1-1h2.53a3.53 3.53 0 0 1 3.53 3.53v3.8a3.53 3.53 0 0 1-3.53 3.53zm-1.53-2h1.53c.84 0 1.53-.69 1.53-1.53v-3.8c0-.84-.69-1.53-1.53-1.53h-1.53v6.86z" fill="#D71921"/><path d="M23.78 10.86c-.55 0-1-.45-1-1 0-4.33-3.52-7.86-7.86-7.86S7.06 5.53 7.06 9.86c0 .55-.45 1-1 1s-1-.45-1-1C5.06 4.42 9.48 0 14.92 0c5.44 0 9.86 4.42 9.86 9.86 0 .55-.45 1-1 1zM18.72 24.78h-2.53c-.55 0-1-.45-1-1s.45-1 1-1h2.53c2.24 0 4.06-1.82 4.06-4.06 0-.55.45-1 1-1s1 .45 1 1c0 3.34-2.72 6.06-6.06 6.06z" fill="#D71921"/><path d="M14.92 19.35A6.88 6.88 0 0 1 10 17.31a.996.996 0 1 1 1.41-1.41c.94.94 2.18 1.45 3.51 1.45 1.33 0 2.57-.52 3.51-1.45a.996.996 0 1 1 1.41 1.41 6.88 6.88 0 0 1-4.92 2.04z" fill="#191919"/></g><defs><clipPath id="a"><path fill="#fff" d="M0 0h29.84v24.78H0z"/></clipPath></defs></svg>