<svg width="28" height="28" fill="none" xmlns="http://www.w3.org/2000/svg"><path d="M14 19a2 2 0 0 1-1.839-1.212 7.999 7.999 0 0 1-.951-.288l-.017-.006a8 8 0 0 1-4.677-4.668A8 8 0 1 1 21.965 9.25c.039.413-.3.75-.715.75-.414 0-.745-.337-.793-.749A6.5 6.5 0 1 0 11.496 16l.04.017c.2.082.405.154.616.217a2 2 0 0 1 3.785 1.266A2 2 0 0 1 14 19zm-7-1.5h1.169a9.6 9.6 0 0 1-1.518-1.48A3 3 0 0 0 4 19v.715C4 23.433 8.21 26 14 26s10-2.708 10-6.285V19a3 3 0 0 0-3-3h-3.645a3.5 3.5 0 0 1 .11 1.5H21l.145.007A1.5 1.5 0 0 1 22.5 19v.715l-.005.161c-.14 2.52-3.569 4.624-8.495 4.624-5.111 0-8.5-2.111-8.5-4.785V19l.007-.145A1.5 1.5 0 0 1 7 17.5zM19 10a5 5 0 0 1-2.644 4.411A3.5 3.5 0 0 0 14 13.5a3.5 3.5 0 1 0 0-7 3.5 3.5 0 0 0 0 7c-.908 0-1.734.346-2.355.912A5 5 0 1 1 19 10z" fill="#191919"/></svg>