<svg width="19" height="25" fill="none" xmlns="http://www.w3.org/2000/svg"><g clip-path="url(#a)"><path d="M18.127 15.36h-5.895c-1.595 0-2.891-1.317-2.891-2.938V4.44h8.924c.52 0 .874.529.687 1.022-.583 1.536-1.165 3.079-1.748 4.615l1.262 3.622c.361.634.354 1.261.056 1.522a.624.624 0 0 1-.395.148v-.007z" fill="#E8343F"/><path d="M3.654 1.994H7.92c1.713 0 3.1 1.41 3.1 3.15v7.772H3.653V1.994z" fill="#FF494B"/><path d="M2.358 0h.464C3.585 0 4.21.634 4.21 1.41V25H.971V1.41C.97.633 1.588 0 2.358 0z" fill="#546F7A"/><path d="M2.78 0C3.564 0 4.21.648 4.21 1.444V25H2.787V0H2.78z" fill="#344348"/><path d="M5.173 23.887H0V25h5.173v-1.113z" fill="#546F7A"/></g><defs><clipPath id="a"><path fill="#fff" d="M0 0h19v25H0z"/></clipPath></defs></svg>