<svg width="125" height="17" fill="none" xmlns="http://www.w3.org/2000/svg"><g clip-path="url(#a)"><path d="M21.124 5.48h-3.53V17h3.53V5.48zM40.91 5.863c-.708-.363-1.53-.55-2.44-.55-1.096 0-2.082.268-2.929.795-.419.26-.793.584-1.115.963a3.463 3.463 0 0 0-.942-.949c-.793-.536-1.732-.806-2.786-.806-.939 0-1.788.206-2.526.614a4.031 4.031 0 0 0-.886.667V5.483h-3.384v11.52h3.53v-5.78c0-.647.1-1.183.301-1.596.196-.404.475-.714.827-.915a2.403 2.403 0 0 1 1.213-.307c.651 0 1.135.198 1.484.603.347.407.525 1.055.525 1.925v6.072h3.53v-5.779c0-.647.1-1.183.302-1.596.195-.405.475-.714.827-.915a2.403 2.403 0 0 1 1.213-.307c.643 0 1.143.203 1.495.602.355.408.534 1.055.534 1.923v6.072h3.53v-6.574c0-1.161-.208-2.13-.613-2.877-.408-.754-.978-1.32-1.69-1.686M54.711 5.905c-.95-.502-2.045-.759-3.247-.759-1.201 0-2.314.254-3.258.759a5.815 5.815 0 0 0-2.25 2.099c-.548.89-.827 1.922-.827 3.072 0 1.15.277 2.163.827 3.05a5.898 5.898 0 0 0 2.25 2.107c.944.51 2.04.77 3.258.77 1.219 0 2.297-.26 3.247-.77a5.781 5.781 0 0 0 2.25-2.107c.542-.887.816-1.914.816-3.05s-.274-2.199-.816-3.08c-.54-.883-1.297-1.583-2.25-2.088m-.869 6.767c-.237.444-.567.79-.978 1.027-.41.237-.883.36-1.403.36s-.989-.12-1.4-.36a2.635 2.635 0 0 1-.989-1.027c-.246-.444-.372-.982-.372-1.6 0-.616.126-1.171.372-1.61a2.67 2.67 0 0 1 .99-1.018c.41-.237.882-.36 1.4-.36.516 0 .989.12 1.402.36.411.237.74.58.978 1.016.24.438.36.98.36 1.613s-.122 1.155-.36 1.602M63.224 1.21h-3.53V17h3.53V1.21zM74.768 6.39c-.97-.825-2.345-1.244-4.089-1.244-.9 0-1.8.123-2.674.36-.877.24-1.638.586-2.26 1.024l-.093.064 1.297 2.523.126-.098c.39-.31.874-.56 1.436-.742a5.565 5.565 0 0 1 1.73-.276c.84 0 1.47.187 1.872.552.374.343.57.804.595 1.407h-2.465c-1.156 0-2.11.148-2.836.438-.735.296-1.28.709-1.62 1.233-.342.522-.515 1.136-.515 1.828 0 .692.176 1.273.523 1.808.346.533.852.963 1.497 1.27.643.307 1.426.463 2.32.463 1.012 0 1.85-.195 2.498-.583.313-.187.582-.424.808-.709v1.125h3.32v-6.555c0-1.747-.495-3.056-1.47-3.887zm-2.06 5.735v.996c-.184.46-.48.815-.88 1.052a2.69 2.69 0 0 1-1.4.369c-.517 0-.97-.115-1.274-.34-.297-.221-.44-.511-.44-.89 0-.341.127-.618.386-.844.26-.228.763-.343 1.496-.343h2.112z" fill="#D71921"/><path d="M85.373 13.755c-.338.26-.754.39-1.24.39-.4 0-.705-.114-.934-.348-.226-.232-.34-.57-.34-1.008V8.336h2.808V5.565h-2.809v-2.74h-3.53v2.74H77.59v2.77h1.739v4.496c0 1.37.388 2.422 1.154 3.12.76.695 1.836 1.05 3.191 1.05.509 0 1.012-.062 1.487-.182.48-.123.9-.307 1.249-.553l.084-.058-.978-2.56-.14.107h-.003zM96.046 5.863c-.903-.474-1.928-.717-3.046-.717-1.118 0-2.22.257-3.144.759a5.73 5.73 0 0 0-2.197 2.099c-.533.887-.805 1.92-.805 3.07 0 1.149.274 2.162.817 3.05.542.887 1.316 1.598 2.305 2.109.987.51 2.143.767 3.446.767 1.03 0 1.959-.162 2.752-.48a5.255 5.255 0 0 0 1.998-1.384l.079-.09-1.909-2.067-.095.092a3.78 3.78 0 0 1-1.204.79c-.436.173-.953.262-1.535.262-.648 0-1.218-.12-1.69-.354a2.542 2.542 0 0 1-1.099-1.016 2.648 2.648 0 0 1-.262-.63h8.473l.01-.118c.015-.14.029-.29.043-.452.014-.17.022-.313.022-.44 0-1.231-.268-2.306-.793-3.196a5.425 5.425 0 0 0-2.158-2.06m-5.393 3.344c.223-.416.542-.743.944-.974.405-.232.88-.35 1.414-.35.534 0 1.003.118 1.4.35.397.229.71.555.937.965.123.224.212.483.27.77h-5.228c.056-.284.145-.538.266-.759M108.892 12.583c-.279.519-.634.901-1.047 1.13-.42.231-.881.349-1.373.349-.533 0-1.02-.12-1.444-.36a2.602 2.602 0 0 1-1.009-1.019c-.246-.438-.372-.98-.372-1.61 0-.63.126-1.172.372-1.61a2.639 2.639 0 0 1 1.009-1.019c.424-.237.911-.36 1.444-.36.492 0 .953.12 1.373.36.416.237.771.617 1.05 1.122l.062.112 2.758-1.48-.05-.11a4.684 4.684 0 0 0-2.004-2.186c-.897-.505-1.962-.759-3.166-.759-1.205 0-2.345.254-3.309.756a5.778 5.778 0 0 0-2.283 2.099c-.548.89-.827 1.922-.827 3.072 0 1.15.276 2.166.827 3.061a5.744 5.744 0 0 0 2.283 2.11c.964.502 2.076.76 3.309.76 1.232 0 2.269-.258 3.166-.76a4.686 4.686 0 0 0 2.004-2.163l.05-.111-2.758-1.502-.062.115-.003.003zM124.377 7.548c-.417-.753-.995-1.32-1.722-1.685-.721-.363-1.548-.547-2.459-.547-.981 0-1.869.21-2.638.622-.296.16-.567.346-.813.558V1.214h-3.53V17h3.53v-5.695c0-.673.112-1.231.33-1.655.218-.419.522-.737.908-.938.391-.206.838-.31 1.333-.31.684 0 1.221.204 1.59.606.374.407.562 1.052.562 1.92V17h3.529v-6.575c0-1.16-.209-2.129-.623-2.877" fill="#fff"/><path d="M14.903 5.48V17h-3.507v-6.01l-.984.432c-.874.396-1.894.605-2.948.605-1.053 0-2.09-.212-2.973-.616l-.978-.43V17H0V0h3.51v4.576c.081 2.534 1.903 3.798 3.689 3.927.09 0 .179.005.27.005 1.381 0 3.133-.98 3.745-3.027h3.689zM14.903 0h-3.507v3.497h3.507V0zM21.113 0h-3.508v3.497h3.508V0z" fill="#D71921"/></g><defs><clipPath id="a"><path fill="#fff" d="M0 0h125v17H0z"/></clipPath></defs></svg>