<svg width="12" height="25" fill="none" xmlns="http://www.w3.org/2000/svg"><g clip-path="url(#a)"><path d="M18 12.5C18 5.596 12.403 0 5.5 0-1.404 0-7 5.596-7 12.5c0 6.24 4.571 11.41 10.547 12.348v-8.735H.373V12.5h3.174V9.746c0-3.133 1.866-4.863 4.721-4.863 1.368 0 2.798.244 2.798.244v3.076H9.49c-1.553 0-2.037.964-2.037 1.952V12.5h3.467l-.554 3.613H7.453v8.735C13.43 23.91 18 18.74 18 12.5z" fill="#1877F2"/><path d="m10.366 16.113.554-3.613H7.453v-2.345c0-.988.484-1.952 2.037-1.952h1.576V5.127s-1.43-.244-2.798-.244c-2.855 0-4.721 1.73-4.721 4.863V12.5H.373v3.613h3.174v8.735a12.585 12.585 0 0 0 3.906 0v-8.735h2.913z" fill="#fff"/></g><defs><clipPath id="a"><path fill="#fff" transform="translate(.5)" d="M0 0h11v25H0z"/></clipPath></defs></svg>