<svg width="30" height="43" fill="none" xmlns="http://www.w3.org/2000/svg"><g clip-path="url(#a)" fill="#191919"><path d="M14.605 13.783c3.596-.004 6.845 2.592 7.555 6.079.404 1.982.053 3.899-.64 5.768-.175.47-.412.922-.542 1.404-.204.76.104 1.373.796 1.745.066.036.135.066.2.103.314.175.424.462.294.752-.133.298-.455.428-.782.318-1.22-.413-1.998-1.714-1.754-2.982.068-.353.191-.703.338-1.032.693-1.56 1.05-3.176 1.005-4.895-.07-2.671-2.27-5.307-5.034-5.914-1.783-.392-3.463-.184-4.905 1.033-1.097.925-1.636 2.168-1.933 3.544-.126.583-.255 1.178-.485 1.724-.473 1.12-1.394 1.636-2.583 1.706-.359.021-.63-.202-.66-.52-.031-.343.188-.63.564-.646 1.029-.04 1.527-.648 1.763-1.569.206-.807.35-1.64.646-2.415 1.032-2.702 3.265-4.2 6.156-4.203z"/><path d="M17.866 21.386c-.215 3.142-1.277 5.899-3.717 8.011-.802.696-1.73 1.18-2.744 1.501a4.7 4.7 0 0 0-.542.198c-.368.167-.434.32-.336.715.096.389-.054.675-.408.78-.331.098-.648-.087-.772-.45-.266-.774-.027-1.49.666-1.928.224-.141.472-.262.725-.335 2.16-.627 3.669-2.024 4.685-3.984.816-1.574 1.271-3.245 1.188-5.037a2.044 2.044 0 0 0-.773-1.531c-.39-.322-.826-.5-1.338-.295-.535.213-.854.602-.914 1.177-.063.607-.092 1.218-.156 1.825-.214 2.028-1.356 3.422-3.066 4.405-.923.53-1.919.843-2.994.861-.434.008-.713-.205-.73-.55-.017-.362.257-.581.703-.62 2.05-.178 3.622-1.106 4.55-2.985.37-.747.34-1.582.405-2.392.023-.288.04-.579.093-.862.204-1.099.9-1.768 1.946-2.037 1.104-.285 1.994.17 2.717.987.64.722.844 1.595.811 2.546z"/><path d="M20.135 21.423c-.022 1.176-.453 2.465-.9 3.752a74.86 74.86 0 0 0-.779 2.412 2.27 2.27 0 0 0-.074.571c-.016.404.154.696.535.866.424.19.564.47.424.8-.138.328-.507.442-.904.281-.888-.36-1.416-1.163-1.268-2.118a14.52 14.52 0 0 1 .569-2.264c.392-1.2.872-2.369 1.1-3.621.439-2.414-1.036-4.13-2.403-4.786-1.667-.802-4.098-.614-4.968 2.088-.182.566-.228 1.175-.35 1.76-.435 2.108-2.05 3.621-4.193 3.938-.117.018-.232.046-.35.054-.328.021-.606-.195-.65-.495-.048-.322.13-.577.47-.658.27-.064.55-.1.816-.177 1.616-.47 2.612-1.692 2.771-3.368.104-1.098.43-2.126 1.125-2.997 1.28-1.605 2.974-2.02 4.901-1.552 2.382.577 4.142 2.875 4.127 5.514h.001z"/><path d="M5.923 18.716c.086-.269.189-.652.329-1.021 1.206-3.171 3.431-5.188 6.788-5.823 3.664-.693 7.825.864 9.998 4.612.486.838.878 1.715 1.106 2.66.082.34-.09.634-.41.726a.623.623 0 0 1-.755-.383c-.03-.08-.048-.164-.072-.247-.435-1.5-1.191-2.82-2.29-3.93-1.32-1.332-2.942-2.103-4.79-2.342-2.426-.314-4.592.31-6.408 1.99-1.158 1.071-1.837 2.433-2.266 3.93-.118.411-.336.59-.701.556-.322-.031-.545-.287-.53-.727v-.001z"/><path d="M14.688 9.638c2.935.022 5.524.955 7.713 2.935.308.28.35.617.121.873-.237.266-.616.276-.92.023-.04-.034-.078-.072-.119-.108-.75-.665-1.564-1.244-2.49-1.63-3.892-1.623-7.507-1.125-10.831 1.473-.085.066-.163.142-.255.194a.637.637 0 0 1-.81-.156c-.194-.257-.173-.586.114-.796.646-.474 1.286-.968 1.98-1.363a10.944 10.944 0 0 1 5.497-1.444zM15.79 21.087c-.096 2.016-.61 3.878-1.875 5.478-1.413 1.789-3.332 2.664-5.529 3.019a.582.582 0 0 1-.659-.481c-.054-.335.127-.579.488-.678.69-.19 1.404-.32 2.06-.593 2.31-.956 3.586-2.767 4.076-5.164.132-.646.154-1.316.209-1.977.023-.28.112-.497.383-.612a.599.599 0 0 1 .845.505c.013.17.002.342.002.502zM29.982 12.913h-1.307c-.006-.108-.017-.22-.017-.333-.002-1.092-.034-2.187.01-3.278.037-.942-.606-1.504-1.455-1.47-1.08.045-2.164.011-3.246.011h-.372V6.521c.1-.006.202-.017.305-.018 1.157-.001 2.314-.003 3.47 0 1.51.004 2.621 1.109 2.626 2.612.004 1.157.001 2.315 0 3.471 0 .105-.01.209-.015.327h.001zM6.414 6.524v1.302c-.11.006-.223.016-.336.016-1.125.002-2.25-.001-3.375.002-.867.002-1.354.486-1.358 1.35-.005 1.115-.002 2.229-.002 3.343v.37H.021c-.006-.101-.017-.204-.018-.307-.001-1.157-.004-2.314 0-3.471.005-1.51 1.1-2.615 2.613-2.625 1.222-.008 2.443 0 3.665 0 .031 0 .063.01.133.02zM.029 30.084h1.313v.35c0 1.114 0 2.229.002 3.343.002.904.482 1.378 1.393 1.379H6.41v1.322c-.103.007-.196.018-.29.019-1.178.001-2.356.005-3.535 0-1.454-.009-2.569-1.11-2.58-2.56-.01-1.243-.001-2.486 0-3.73 0-.03.011-.062.024-.125v.002zM23.583 36.499v-1.342h3.726c.859-.002 1.346-.494 1.348-1.36V30.09h1.326c.006.117.015.221.015.326 0 1.146.003 2.293 0 3.439-.005 1.533-1.103 2.639-2.628 2.644-1.158.004-2.314 0-3.472 0h-.315zM19.612 32.712c-.85-.015-1.597-.31-2.263-.811-.375-.282-.73-.596-1.07-.92-.19-.179-.368-.212-.605-.122-1.186.454-2.208 1.166-3.173 1.974a1.153 1.153 0 0 1-.53.256c-.265.042-.47-.105-.578-.362a.516.516 0 0 1 .18-.659c.848-.613 1.685-1.247 2.573-1.797.463-.287 1.016-.437 1.54-.614.44-.149.847-.024 1.196.276.349.3.687.612 1.041.906.65.538 1.379.796 2.236.625.378-.076.683.144.74.487.049.297-.171.588-.524.66-.25.05-.508.069-.762.101z"/><path d="M18.139 34.578c-.066-.037-.218-.107-.357-.197-.386-.249-.746-.545-1.153-.752-.83-.424-1.626-.305-2.32.314-.294.261-.539.578-.806.87-.213.232-.526.298-.786.155-.257-.142-.35-.364-.29-.65a.38.38 0 0 1 .056-.147c.72-.989 1.569-1.787 2.857-1.94.719-.084 1.393.08 2.008.429.463.262.889.592 1.317.91.21.156.255.396.16.638-.101.256-.31.372-.686.37zM24.546 22.478a10.724 10.724 0 0 1-1.04 4.504c-.124.262-.29.45-.593.47-.48.034-.783-.429-.565-.88.51-1.053.843-2.155.916-3.323.035-.554.015-1.113-.012-1.667-.022-.44.15-.73.525-.78.372-.05.646.18.698.619.042.35.048.704.07 1.056z"/></g><defs><clipPath id="a"><path fill="#fff" transform="translate(0 6.5)" d="M0 0h30v30H0z"/></clipPath></defs></svg>