<svg width="17" height="13" fill="none" xmlns="http://www.w3.org/2000/svg"><path d="M4.106 12.511V6.319l-1.93-1.756-1.73-.975v7.83c0 .605.492 1.093 1.098 1.093h2.562z" fill="#4285F4"/><path d="M12.894 12.511h2.562c.608 0 1.099-.49 1.099-1.093v-7.83l-1.96 1.116-1.701 1.615v6.192z" fill="#34A853"/><path d="M4.106 6.32 3.844 3.9l.262-2.315L8.5 4.863l4.393-3.278.294 2.19-.294 2.544L8.5 9.597 4.106 6.32z" fill="#EA4335"/><path d="M12.894 1.585v4.734l3.66-2.731V2.13C16.555.78 15.005.009 13.92.82l-1.025.765z" fill="#FBBC04"/><path d="M.445 3.588 2.13 4.844 4.106 6.32V1.585L3.081.82C1.994.01.445.78.445 2.13v1.458z" fill="#C5221F"/></svg>