<svg width="273" height="37" fill="none" xmlns="http://www.w3.org/2000/svg"><g clip-path="url(#a)" fill="#fff"><path d="M46.134 11.93h-7.712V37h7.712V11.93zM89.346 12.76c-1.545-.795-3.332-1.192-5.327-1.192-2.395 0-4.546.578-6.394 1.726a10.244 10.244 0 0 0-2.438 2.098 7.648 7.648 0 0 0-2.055-2.063c-1.736-1.165-3.783-1.761-6.09-1.761-2.056 0-3.913.449-5.518 1.338a8.844 8.844 0 0 0-1.934 1.45v-2.425h-7.392V37h7.712V24.422c0-1.407.226-2.581.66-3.47.434-.88 1.04-1.554 1.804-1.995.772-.44 1.666-.664 2.646-.664 1.423 0 2.481.431 3.236 1.312.763.89 1.145 2.296 1.145 4.187v13.217h7.712V24.43c0-1.407.226-2.582.66-3.47.434-.881 1.04-1.555 1.804-1.995.772-.44 1.666-.665 2.646-.665 1.406 0 2.499.44 3.262 1.313.772.889 1.162 2.296 1.162 4.186v13.217h7.713V22.704c0-2.53-.451-4.636-1.336-6.259-.894-1.64-2.134-2.874-3.687-3.668M119.483 12.845c-2.082-1.096-4.467-1.648-7.087-1.648s-5.049.552-7.114 1.649c-2.065 1.096-3.722 2.633-4.91 4.566-1.197 1.934-1.805 4.187-1.805 6.682s.608 4.705 1.805 6.639c1.197 1.933 2.845 3.479 4.91 4.584 2.065 1.113 4.459 1.674 7.114 1.674 2.654 0 5.014-.56 7.096-1.674 2.082-1.114 3.73-2.66 4.91-4.584 1.18-1.934 1.779-4.17 1.779-6.639 0-2.469-.599-4.791-1.779-6.708-1.18-1.916-2.837-3.444-4.91-4.54m-1.9 14.736c-.52.966-1.24 1.717-2.134 2.235-.894.518-1.926.786-3.062.786-1.137 0-2.16-.259-3.063-.786-.893-.518-1.622-1.268-2.16-2.235-.538-.967-.807-2.141-.807-3.48 0-1.337.269-2.555.807-3.504.538-.95 1.267-1.7 2.16-2.219.894-.518 1.926-.777 3.063-.777 1.136 0 2.16.26 3.062.777a5.636 5.636 0 0 1 2.134 2.21c.521.958.79 2.132.79 3.505 0 1.373-.269 2.512-.79 3.488zM138.083 2.642h-7.712V37h7.712V2.642zM163.293 13.907c-2.116-1.795-5.127-2.71-8.926-2.71-1.97 0-3.93.267-5.848.785-1.917.527-3.574 1.27-4.936 2.228l-.199.138 2.837 5.49.268-.216c.859-.673 1.909-1.217 3.141-1.614a12.289 12.289 0 0 1 3.782-.604c1.839 0 3.21.405 4.086 1.2.816.75 1.241 1.752 1.302 3.056h-5.388c-2.524 0-4.606.319-6.194.958-1.605.647-2.793 1.545-3.539 2.685-.746 1.14-1.119 2.477-1.119 3.98 0 1.501.381 2.77 1.145 3.936.754 1.165 1.856 2.089 3.27 2.762 1.406.665 3.106 1.01 5.067 1.01 2.203 0 4.042-.423 5.456-1.269a6.264 6.264 0 0 0 1.761-1.545v2.452h7.253V22.368c0-3.808-1.085-6.648-3.21-8.46m-4.511 12.482v2.167c-.408 1.002-1.05 1.779-1.917 2.297-.894.535-1.926.802-3.054.802s-2.117-.25-2.785-.742c-.65-.475-.963-1.114-.963-1.934 0-.742.278-1.338.842-1.839.572-.5 1.665-.75 3.27-.75h4.616-.009zM186.457 29.93c-.738.57-1.649.854-2.707.854-.876 0-1.544-.25-2.039-.76-.494-.5-.746-1.242-.746-2.192v-9.686h6.133v-6.034h-6.133V6.146h-7.712v5.966h-3.8v6.034h3.8v9.781c0 2.987.85 5.266 2.516 6.785 1.665 1.52 4.008 2.288 6.966 2.288 1.11 0 2.212-.13 3.253-.397 1.05-.268 1.969-.674 2.724-1.209l.182-.13-2.134-5.567-.303.233zM209.758 12.75c-1.969-1.035-4.207-1.562-6.654-1.562-2.446 0-4.849.553-6.862 1.649-2.021 1.096-3.635 2.633-4.797 4.567-1.163 1.933-1.761 4.178-1.761 6.681 0 2.504.598 4.705 1.778 6.639 1.18 1.934 2.872 3.479 5.032 4.593 2.151 1.105 4.684 1.674 7.521 1.674 2.256 0 4.277-.354 6.012-1.044 1.744-.7 3.21-1.71 4.364-3.013l.173-.19-4.173-4.498-.208.199a8.125 8.125 0 0 1-2.628 1.718c-.955.38-2.083.57-3.349.57-1.414 0-2.655-.26-3.696-.769a5.534 5.534 0 0 1-2.394-2.21 5.727 5.727 0 0 1-.573-1.372h18.505l.026-.26c.034-.301.06-.63.086-.983a9.97 9.97 0 0 0 .044-.959c0-2.676-.582-5.015-1.735-6.949-1.154-1.934-2.733-3.445-4.711-4.48zm-11.755 7.27a5.42 5.42 0 0 1 2.065-2.124c.885-.501 1.926-.76 3.088-.76 1.163 0 2.195.259 3.063.76a5.428 5.428 0 0 1 2.047 2.098c.269.483.468 1.044.59 1.674h-11.425a5.841 5.841 0 0 1 .581-1.657M237.822 27.375c-.616 1.13-1.38 1.96-2.291 2.46s-1.917.76-2.993.76c-1.162 0-2.229-.268-3.157-.786a5.692 5.692 0 0 1-2.204-2.21c-.538-.958-.807-2.132-.807-3.505 0-1.373.269-2.555.807-3.505a5.772 5.772 0 0 1 2.204-2.218c.928-.518 1.986-.786 3.157-.786a5.98 5.98 0 0 1 2.993.785c.911.518 1.683 1.339 2.299 2.444l.139.241 6.021-3.22-.113-.242a10.27 10.27 0 0 0-4.372-4.756c-1.961-1.096-4.286-1.658-6.915-1.658-2.628 0-5.118.553-7.226 1.65-2.108 1.096-3.791 2.632-4.988 4.566-1.197 1.934-1.805 4.187-1.805 6.682s.608 4.713 1.805 6.664c1.197 1.951 2.871 3.496 4.988 4.593 2.108 1.096 4.537 1.649 7.226 1.649 2.69 0 4.954-.553 6.915-1.658 1.969-1.105 3.435-2.685 4.372-4.705l.113-.241-6.021-3.272-.139.25-.008.018zM271.638 16.42c-.911-1.64-2.177-2.875-3.756-3.67-1.57-.794-3.384-1.19-5.37-1.19-2.143 0-4.086.457-5.761 1.355a9.798 9.798 0 0 0-1.778 1.217V2.633h-7.712v34.358h7.712V24.595c0-1.468.243-2.676.72-3.6.477-.915 1.145-1.597 1.987-2.046.85-.449 1.83-.674 2.906-.674 1.492 0 2.663.44 3.479 1.321.815.88 1.231 2.288 1.231 4.179V36.99h7.713V22.678c0-2.53-.46-4.636-1.362-6.259M32.55 11.93V37h-7.66V23.913l-2.152.94c-1.909.864-4.138 1.321-6.437 1.321-2.3 0-4.563-.457-6.498-1.338l-2.134-.932V37.01H0V0h7.669v9.962c.173 5.517 4.155 8.262 8.06 8.547.199 0 .39.008.598.008 3.019 0 6.845-2.132 8.18-6.586h8.051-.009zM32.55 0h-7.66v7.605h7.66V0zM46.108 0h-7.66v7.605h7.66V0z"/></g><defs><clipPath id="a"><path fill="#fff" d="M0 0h273v37H0z"/></clipPath></defs></svg>