<svg width="24" height="24" fill="none" xmlns="http://www.w3.org/2000/svg"><path d="M21.25 12a9.399 9.399 0 0 1-.7 3.54 9.3 9.3 0 0 1-5 5 9.3 9.3 0 0 1-7.34-.11L4.34 21c-.19.045-.39.045-.58 0a1.3 1.3 0 0 1-.48-.31A1.15 1.15 0 0 1 3 19.58l.53-3.92A8.9 8.9 0 0 1 2.75 12a9.4 9.4 0 0 1 .7-3.54 9.3 9.3 0 0 1 5-5A9.3 9.3 0 0 1 12 2.75" stroke="#fff" stroke-width="1.5" stroke-linecap="round" stroke-linejoin="round"/><path d="M17.768 2.75v5.5m-2.744-2.744h5.5" stroke="#fff" stroke-width="1.5" stroke-miterlimit="10" stroke-linecap="round"/><path d="M12 12.61a.61.61 0 1 0 0-1.221.61.61 0 0 0 0 1.221zm4.279 0a.61.61 0 1 0 0-1.221.61.61 0 0 0 0 1.221zm-8.558 0a.612.612 0 0 0 .432-1.042.612.612 0 0 0-.863 0 .61.61 0 0 0 .43 1.042z" stroke="#fff" stroke-width="1.5" stroke-linecap="round" stroke-linejoin="round"/></svg>