<svg width="24" height="21" fill="none" xmlns="http://www.w3.org/2000/svg"><path d="m2 19.542-1.163-.478a1.332 1.332 0 0 0 .202 1.304c.144.178.332.313.544.39.212.078.44.095.66.05L2 19.541zm5.882-1.21.593-1.137-.396-.22-.44.09.243 1.268zM4.03 14.269l1.162.478.204-.535-.245-.516-1.121.573zM20.75 10.5c0 4.193-3.566 7.75-8.163 7.75v2.583c5.802 0 10.663-4.539 10.663-10.333h-2.5zm-16.324 0c0-4.193 3.568-7.75 8.163-7.75V.167C6.787.167 1.925 4.706 1.925 10.5h2.501zm8.163-7.75c4.595 0 8.16 3.557 8.16 7.75h2.5C23.25 4.706 18.39.167 12.59.167V2.75zm-.002 15.5a8.453 8.453 0 0 1-4.112-1.055L7.29 19.469a10.835 10.835 0 0 0 5.297 1.364V18.25zM2.244 20.808l5.882-1.21-.487-2.532-5.883 1.209.488 2.534v-.002zm2.907-7.113a7.43 7.43 0 0 1-.725-3.195H1.925c0 1.55.352 3.02.982 4.34l2.244-1.145zm-2.282.095L.837 19.065l2.323.953 2.03-5.274-2.323-.954h.002zM8.25 11.792c.69 0 1.25-.579 1.25-1.292 0-.713-.56-1.292-1.25-1.292S7 9.787 7 10.5c0 .713.56 1.292 1.25 1.292zM12.625 11.792c.69 0 1.25-.579 1.25-1.292 0-.713-.56-1.292-1.25-1.292s-1.25.579-1.25 1.292c0 .713.56 1.292 1.25 1.292zM17 11.792c.69 0 1.25-.579 1.25-1.292 0-.713-.56-1.292-1.25-1.292s-1.25.579-1.25 1.292c0 .713.56 1.292 1.25 1.292z" fill="#fff"/></svg>