<svg width="34" height="26" fill="none" xmlns="http://www.w3.org/2000/svg"><path d="M26.484 22.355c1.731 0 3.135-1.383 3.135-3.089V6.46a3.074 3.074 0 0 0-1.327-2.525c-.046-.03-.092-.06-.145-.09a2.803 2.803 0 0 0-.328-.173 2.713 2.713 0 0 0-.603-.203 3.32 3.32 0 0 0-.732-.098H7.754c-.076 0-.29 0-.572.06-.053.008-.106.023-.16.038a4.4 4.4 0 0 0-.427.128c-.061.022-.114.052-.175.075-.107.052-.222.105-.328.18-.046.03-.1.06-.145.09a2.8 2.8 0 0 0-.412.339 3.074 3.074 0 0 0-.915 2.187V19.28c0 1.706 1.403 3.09 3.135 3.09h18.729v-.016z" fill="#fff"/><path d="M17.03 19.555a.772.772 0 0 1-.77-.77V7.22c0-.424.346-.77.77-.77.423 0 .77.346.77.77v11.564c0 .423-.347.77-.77.77z" fill="#D71921"/><path d="M17.032 19.555a.767.767 0 0 1-.547-1.309l1.055-1.055 2.771-2.772a.774.774 0 0 1 1.078 1.109l-2.756 2.756-1.055 1.055a.756.756 0 0 1-.546.223v-.007z" fill="#D71921"/><path d="M17.031 19.554a.789.789 0 0 1-.546-.223l-1.055-1.055-2.772-2.771a.765.765 0 0 1 .023-1.078.78.78 0 0 1 1.086.008l2.756 2.756 1.055 1.055a.767.767 0 0 1-.547 1.308z" fill="#D71921"/></svg>