<svg width="24" height="22" fill="none" xmlns="http://www.w3.org/2000/svg"><path d="M20.424 21.5c-.414 0-.752-.377-.752-.839 0-.46.338-.838.752-.838 1.137 0 2.07-1.032 2.07-2.306V4.484c0-.462-.12-.906-.353-1.292a2.187 2.187 0 0 0-.256-.344c-.09-.1-.18-.176-.271-.243l-.06-.05a2.14 2.14 0 0 0-.241-.151l-.12-.059a1.338 1.338 0 0 0-.28-.092s-.105-.025-.112-.034c-.18-.042-.324-.042-.377-.042H3.576c-.053 0-.188 0-.376.042l-.106.025c-.09.026-.18.05-.278.093l-.068.033c-.12.059-.188.11-.263.16l-.09.067c-.091.067-.181.15-.272.251a2.434 2.434 0 0 0-.61 1.627v13.042c0 1.266.926 2.306 2.07 2.306.415 0 .754.377.754.838 0 .462-.34.84-.753.84-1.973 0-3.576-1.787-3.576-3.985V4.485c0-.797.21-1.569.61-2.231.128-.21.278-.411.436-.587a3.31 3.31 0 0 1 .475-.436c.037-.034.082-.059.128-.093.158-.109.286-.184.414-.251.082-.042.135-.076.188-.1.173-.076.331-.127.482-.169.082-.025.135-.033.18-.05a3.25 3.25 0 0 1 .655-.075h16.856c.143 0 .376.016.655.075.045.009.09.025.143.034.188.05.346.1.52.176.06.025.112.05.165.084.15.075.279.15.407.243.075.05.128.084.173.126.18.142.33.276.466.436.159.184.309.377.437.587a4.32 4.32 0 0 1 .61 2.23v13.042c0 2.197-1.604 3.984-3.576 3.984l-.008-.009z" fill="#fff"/><path d="M12.022 18.061c-.414 0-.752-.377-.752-.838V4.777c0-.461.338-.839.752-.839s.753.378.753.84v12.436c0 .462-.339.84-.753.84v.008z" fill="#fff"/><path d="M12.022 18.061a.732.732 0 0 1-.534-.243.904.904 0 0 1 0-1.182l3.711-4.135a.698.698 0 0 1 1.062.059.905.905 0 0 1-.053 1.182c-.045.05-2.936 3.271-3.651 4.076a.702.702 0 0 1-.535.243z" fill="#fff"/><path d="M12.022 18.061a.732.732 0 0 1-.535-.243l-3.68-4.1a.904.904 0 0 1 0-1.183.697.697 0 0 1 1.06 0l3.682 4.1a.904.904 0 0 1 0 1.183.702.702 0 0 1-.535.243h.008z" fill="#fff"/></svg>