<svg width="20" height="20" fill="none" xmlns="http://www.w3.org/2000/svg"><path fill-rule="evenodd" clip-rule="evenodd" d="M0 2.888A2.887 2.887 0 0 1 2.888 0a.857.857 0 0 1 0 1.714c-.65 0-1.174.524-1.174 1.174v14.224c0 .65.524 1.174 1.174 1.174h14.224c.65 0 1.174-.524 1.174-1.174a.857.857 0 0 1 1.714 0A2.887 2.887 0 0 1 17.112 20H2.888A2.887 2.887 0 0 1 0 17.112V2.888z" fill="#fff"/><path fill-rule="evenodd" clip-rule="evenodd" d="M10 5.455c.503 0 .91.354.91.791v7.508c0 .437-.407.792-.91.792-.501 0-.908-.355-.908-.792V6.246c0-.437.407-.791.909-.791z" fill="#fff"/><path fill-rule="evenodd" clip-rule="evenodd" d="M5.455 10c0-.502.355-.91.792-.91h7.507c.437 0 .792.408.792.91s-.355.909-.792.909H6.247c-.437 0-.792-.407-.792-.91zM10 .871A.86.86 0 0 1 10.848 0h6.294C18.722 0 20 1.313 20 2.936v6.193a.86.86 0 0 1-.848.871.86.86 0 0 1-.848-.871V2.936c0-.66-.52-1.194-1.162-1.194h-6.294A.86.86 0 0 1 10 .872z" fill="#fff"/></svg>