<svg width="24" height="24" fill="none" xmlns="http://www.w3.org/2000/svg"><g clip-path="url(#a)"><path d="M19.97 23.34H3.37C1.51 23.34 0 21.83 0 19.97V3.37C0 1.51 1.51 0 3.37 0c.55 0 1 .45 1 1s-.45 1-1 1C2.61 2 2 2.62 2 3.37v16.59c0 .76.61 1.37 1.37 1.37h16.6c.76 0 1.37-.62 1.37-1.37 0-.55.45-1 1-1s1 .45 1 1c0 1.86-1.51 3.37-3.37 3.37v.01z" fill="#D71921"/><path d="M11.67 17.41c-.55 0-1-.45-1-1V6.93c0-.55.45-1 1-1s1 .45 1 1v9.48c0 .55-.45 1-1 1z" fill="#fff"/><path d="M16.41 12.67H6.93c-.55 0-1-.45-1-1s.45-1 1-1h9.48c.55 0 1 .45 1 1s-.45 1-1 1z" fill="#fff"/><path d="M22.34 11.48c-.55 0-1-.45-1-1V3.37c0-.76-.62-1.37-1.37-1.37h-7.42c-.55 0-1-.45-1-1s.45-1 1-1h7.42c1.86 0 3.37 1.51 3.37 3.37v7.11c0 .55-.45 1-1 1z" fill="#D71921"/></g><defs><clipPath id="a"><path fill="#fff" d="M0 0h23.34v23.34H0z"/></clipPath></defs></svg>