<svg width="26" height="21" fill="none" xmlns="http://www.w3.org/2000/svg"><path fill-rule="evenodd" clip-rule="evenodd" d="M.259 3.006C.444 1.723 1.612.947 2.749.947h17.878a.912.912 0 0 1 0 1.825H2.749c-.395 0-.65.262-.684.493a.57.57 0 0 0 .565.656h19.483a2.896 2.896 0 0 1 2.892 2.891v2.974a.912.912 0 0 1-1.824 0V6.812c0-.584-.48-1.067-1.068-1.067H2.63A2.395 2.395 0 0 1 .258 3.011v-.005z" fill="#fff"/><path fill-rule="evenodd" clip-rule="evenodd" d="M1.152 2.434c.504 0 .913.408.913.912v14.366c0 .293.122.566.316.76a.912.912 0 0 1-1.29 1.29 2.905 2.905 0 0 1-.85-2.05V3.346c0-.504.408-.912.911-.912zM24.092 13.836c.503 0 .912.408.912.912v2.973a2.896 2.896 0 0 1-2.892 2.892H7.746a.912.912 0 0 1 0-1.824h14.366c.585 0 1.068-.48 1.068-1.068v-2.973c0-.504.408-.912.912-.912z" fill="#fff"/><path fill-rule="evenodd" clip-rule="evenodd" d="M18.219 10.78c0-1.05.855-1.906 1.906-1.906h3.968c1.05 0 1.906.855 1.906 1.906v2.974a1.909 1.909 0 0 1-1.906 1.906h-3.968a1.909 1.909 0 0 1-1.906-1.906V10.78zm1.849-.057a.08.08 0 0 0-.025.057v2.974c0 .02.008.04.025.057a.08.08 0 0 0 .057.025h3.968a.08.08 0 0 0 .057-.025.08.08 0 0 0 .025-.057V10.78c0-.02-.007-.04-.025-.057a.08.08 0 0 0-.057-.025h-3.968a.08.08 0 0 0-.057.025z" fill="#fff"/></svg>