<svg width="30" height="30" fill="none" xmlns="http://www.w3.org/2000/svg"><path d="M26.26 14.198a.727.727 0 0 1-.722-.729v-3.08c0-.728-.592-1.325-1.314-1.325H4.247c-.65 0-1.27-.284-1.696-.78a2.274 2.274 0 0 1-.526-1.798c.151-1.114 1.154-1.951 2.338-1.951h18.339c.397 0 .721.327.721.728 0 .4-.324.728-.721.728H4.362c-.403 0-.85.255-.908.692a.825.825 0 0 0 .187.655.807.807 0 0 0 .606.277h19.977c1.516 0 2.758 1.245 2.758 2.782v3.08c0 .4-.325.728-.722.728v-.007z" fill="#fff"/><path d="M3.323 23.86a.736.736 0 0 1-.513-.21 2.778 2.778 0 0 1-.808-1.967V6.8c0-.4.325-.728.722-.728.397 0 .721.328.721.728v14.877c0 .35.138.684.39.932a.73.73 0 0 1 0 1.027.706.706 0 0 1-.512.211v.015zM24.23 24.465H9.494a.727.727 0 0 1-.722-.728c0-.4.325-.728.722-.728h14.738c.721 0 1.313-.597 1.313-1.325v-3.08c0-.401.325-.729.722-.729.397 0 .722.328.722.728v3.08c0 1.537-1.235 2.782-2.757 2.782z" fill="#fff"/><path d="M26.261 19.331h-4.07c-.96 0-1.74-.786-1.74-1.754v-3.08c0-.97.78-1.755 1.74-1.755h4.07c.96 0 1.74.786 1.74 1.754v3.08c0 .97-.78 1.755-1.74 1.755zm-4.063-5.133a.294.294 0 0 0-.296.298v3.08c0 .168.13.3.296.3h4.07a.294.294 0 0 0 .296-.3v-3.08a.294.294 0 0 0-.296-.298h-4.07z" fill="#fff"/><path d="M26.041 13.834s.03-.015.03-.03v-3.05a2.398 2.398 0 0 0-2.39-2.41h-8.66s-.03.014-.03.028v.27H3.922c-1.04 0-1.884.852-1.884 1.9v11.236c0 1.471 1.184 2.665 2.642 2.665h16.476s.03-.014.03-.029v-.21h2.23a2.648 2.648 0 0 0 2.655-2.644v-2.818s-.014-.03-.029-.03h-4.857v-4.886h4.857v.008z" fill="#fff"/></svg>