<svg width="26" height="26" fill="none" xmlns="http://www.w3.org/2000/svg"><path d="M21.112 0H4.888A4.888 4.888 0 0 0 0 4.888v16.224C0 23.812 2.188 26 4.888 26h16.224c2.7 0 4.888-2.188 4.888-4.888V4.888C26 2.188 23.812 0 21.112 0z" fill="#fff"/><path d="M22.134 12.059h-4.98a.718.718 0 0 1-.716-.716c0-.393.322-.716.715-.716h4.981c.394 0 .716.322.716.716a.718.718 0 0 1-.716.716zm0-3.32a.718.718 0 0 1-.715-.717v-1.66c0-.393.322-.716.715-.716.394 0 .716.323.716.716v1.66a.718.718 0 0 1-.716.716zM3.864 20.36a.718.718 0 0 1-.716-.715v-4.981c0-.394.322-.716.716-.716.394 0 .716.322.716.716v4.98a.718.718 0 0 1-.716.717zm4.988-4.98h-1.66a.718.718 0 0 1-.716-.716c0-.394.322-.716.716-.716h1.66c.394 0 .716.322.716.716a.718.718 0 0 1-.716.716z" fill="#D71921"/><path d="M13.01 21.19a8.17 8.17 0 0 1-5.79-2.397l-3.836-3.607a.713.713 0 1 1 .98-1.037l3.85 3.62a6.78 6.78 0 0 0 2.92 1.733 6.807 6.807 0 0 0 3.371.1 6.827 6.827 0 0 0 3-1.539 6.784 6.784 0 0 0 1.881-2.798.718.718 0 0 1 1.353.48 8.181 8.181 0 0 1-2.276 3.392 8.259 8.259 0 0 1-3.636 1.868c-.594.136-1.202.2-1.803.2l-.014-.014zm9.124-9.131a.7.7 0 0 1-.486-.193l-3.85-3.622a6.78 6.78 0 0 0-2.92-1.732 6.806 6.806 0 0 0-3.371-.1 6.827 6.827 0 0 0-2.999 1.539 6.784 6.784 0 0 0-1.882 2.798.718.718 0 0 1-1.353-.48A8.25 8.25 0 0 1 7.55 6.878a8.258 8.258 0 0 1 3.636-1.867 8.234 8.234 0 0 1 4.086.121 8.178 8.178 0 0 1 3.514 2.076l3.836 3.606a.713.713 0 0 1-.494 1.231l.008.015z" fill="#D71921"/></svg>