<svg width="27" height="23" fill="none" xmlns="http://www.w3.org/2000/svg"><path fill-rule="evenodd" clip-rule="evenodd" d="M25.64 1.115a1 1 0 0 1 1 1v2.24a1 1 0 1 1-2 0v-2.24a1 1 0 0 1 1-1zm-7.72 7.72a1 1 0 0 1 1-1h6.72a1 1 0 1 1 0 2h-6.72a1 1 0 0 1-1-1zM1 12.315a1 1 0 0 1 1 1v6.72a1 1 0 0 1-2 0v-6.72a1 1 0 0 1 1-1zm3.48 1a1 1 0 0 1 1-1h2.24a1 1 0 1 1 0 2H5.48a1 1 0 0 1-1-1z" fill="#fff"/><path fill-rule="evenodd" clip-rule="evenodd" d="M10.864.268a11.2 11.2 0 0 1 5.521.165l.006.002a11.154 11.154 0 0 1 4.745 2.8l5.188 4.87a1 1 0 0 1-1.368 1.459l-5.2-4.88a9.154 9.154 0 0 0-3.924-2.329A9.2 9.2 0 0 0 11.3 2.22a9.123 9.123 0 0 0-4.025 2.072A9.154 9.154 0 0 0 4.742 8.05a1 1 0 1 1-1.884-.671 11.154 11.154 0 0 1 3.087-4.582A11.123 11.123 0 0 1 10.857.27l.007-.002zM.27 12.63a1 1 0 0 1 1.414-.043l5.19 4.88.022.021a9.088 9.088 0 0 0 8.43 2.442 9.123 9.123 0 0 0 4.028-2.072l.003-.002a9.059 9.059 0 0 0 2.53-3.756 1 1 0 1 1 1.884.671 11.059 11.059 0 0 1-3.089 4.583 11.123 11.123 0 0 1-4.91 2.526 11.087 11.087 0 0 1-10.279-2.966l-5.179-4.87a1 1 0 0 1-.044-1.414z" fill="#fff"/></svg>