<svg width="21" height="22" fill="none" xmlns="http://www.w3.org/2000/svg"><path d="M19.584 14.594 14.8 12.45l-.013-.006a1.624 1.624 0 0 0-1.617.199l-2.472 2.107c-1.566-.76-3.183-2.365-3.944-3.911l2.11-2.51c.02-.025.04-.05.058-.078a1.625 1.625 0 0 0 .134-1.53V6.71l-2.15-4.792A1.625 1.625 0 0 0 5.218.95 5.714 5.714 0 0 0 .25 6.625c0 8.064 6.561 14.625 14.625 14.625a5.713 5.713 0 0 0 5.675-4.968 1.625 1.625 0 0 0-.966-1.688zm-4.709 5.031a13.014 13.014 0 0 1-13-13 4.083 4.083 0 0 1 3.541-4.062v.012L7.55 7.348 5.45 9.861a.609.609 0 0 0-.058.078 1.625 1.625 0 0 0-.101 1.595c.92 1.881 2.816 3.763 4.718 4.683a1.625 1.625 0 0 0 1.6-.116.814.814 0 0 0 .075-.057l2.469-2.107 4.773 2.138h.012a4.084 4.084 0 0 1-4.063 3.55z" fill="#fff"/></svg>