<svg width="14" height="15" fill="none" xmlns="http://www.w3.org/2000/svg"><path d="m13.326 9.912-3.298-1.478-.009-.004a1.12 1.12 0 0 0-1.114.137L7.2 10.02c-1.08-.524-2.194-1.63-2.718-2.696l1.454-1.73a1.12 1.12 0 0 0 .132-1.108v-.008L4.589 1.175A1.12 1.12 0 0 0 3.424.508 3.938 3.938 0 0 0 0 4.42C0 9.978 4.522 14.5 10.08 14.5a3.938 3.938 0 0 0 3.912-3.424 1.12 1.12 0 0 0-.666-1.164zM10.08 13.38a8.97 8.97 0 0 1-8.96-8.96 2.814 2.814 0 0 1 2.44-2.8v.008l1.47 3.29L3.585 6.65a1.12 1.12 0 0 0-.11 1.153c.634 1.297 1.941 2.594 3.252 3.228a1.12 1.12 0 0 0 1.155-.12L9.582 9.46l3.29 1.473h.008a2.815 2.815 0 0 1-2.8 2.447z" fill="#D71921"/></svg>