<svg width="53" height="49" fill="none" xmlns="http://www.w3.org/2000/svg"><path d="M50.75 27.083V15.458A12.917 12.917 0 0 0 37.835 2.542H15.876A12.917 12.917 0 0 0 2.959 15.458v18.084a12.917 12.917 0 0 0 12.917 12.916h16.171" stroke="#EFEFF0" stroke-width="4.5" stroke-linecap="round" stroke-linejoin="round"/><path d="m3.63 37.417 7.08-8.267a5.683 5.683 0 0 1 7.155-.697 5.684 5.684 0 0 0 7.156-.698l6.019-6.02a10.333 10.333 0 0 1 13.33-1.11l6.38 4.934m-34.203-5.787a4.29 4.29 0 1 0-.051-8.578 4.29 4.29 0 0 0 .052 8.579z" stroke="#EFEFF0" stroke-width="4.5" stroke-linecap="round" stroke-linejoin="round"/><path d="M42.567 46.2v-6.9h-6.8v-2.547h6.8v-6.828h2.604v6.828h6.872v2.548H45.17V46.2h-2.604z" fill="#EFEFF0"/></svg>