<svg width="35" height="35" fill="none" xmlns="http://www.w3.org/2000/svg"><path d="M17.5 25.375a3.5 3.5 0 0 1-3.49-3.22A10.503 10.503 0 0 1 17.5 1.75a10.5 10.5 0 0 1 10.465 9.625.822.822 0 0 1-.84.875.945.945 0 0 1-.919-.875 8.75 8.75 0 1 0-11.882 9.03 3.5 3.5 0 1 1 3.176 4.97zM8.766 21h.159a12.42 12.42 0 0 0 2.261 1.75h-2.42C7.784 22.75 7 23.532 7 24.5c0 2.29 1.088 3.997 2.928 5.168C11.8 30.863 14.464 31.5 17.5 31.5c3.036 0 5.7-.637 7.572-1.832C26.91 28.495 28 26.793 28 24.5a1.75 1.75 0 0 0-1.75-1.75h-3.572c.098-.58.098-1.17 0-1.75h3.572a3.5 3.5 0 0 1 3.5 3.5c0 2.96-1.458 5.19-3.736 6.645-2.244 1.43-5.268 2.105-8.514 2.105-3.246 0-6.27-.675-8.514-2.105C6.708 29.692 5.25 27.457 5.25 24.5c0-1.948 1.58-3.5 3.516-3.5zM24.5 12.25a6.999 6.999 0 0 1-3.273 5.927 5.25 5.25 0 0 0-1.627-1.114 5.25 5.25 0 1 0-4.2 0 5.263 5.263 0 0 0-1.627 1.114A7 7 0 0 1 17.5 5.25a7 7 0 0 1 7 7z" fill="#191919"/></svg>