<svg width="24" height="24" fill="none" xmlns="http://www.w3.org/2000/svg"><g clip-path="url(#a)"><path d="M19.99 23.36H3.37C1.51 23.36 0 21.85 0 19.99c0-.55.45-1 1-1s1 .45 1 1c0 .76.62 1.37 1.37 1.37h16.61c.13 0 .6-.03.97-.4.26-.26.4-.6.4-.97V3.37c0-.76-.62-1.37-1.37-1.37-.55 0-1-.45-1-1s.45-1 1-1c1.86 0 3.37 1.51 3.37 3.37v16.61c0 .9-.35 1.75-.99 2.38-.89.89-1.97.99-2.39.99l.02.01z" fill="#D71921"/><path d="M11.68 17.43c-.55 0-1-.45-1-1v-9.5c0-.55.45-1 1-1s1 .45 1 1v9.49c0 .55-.45 1-1 1v.01z" fill="#D71921"/><path d="M16.43 12.68h-9.5c-.55 0-1-.45-1-1s.45-1 1-1h9.49c.55 0 1 .45 1 1s-.45 1-1 1h.01z" fill="#D71921"/><path d="M2.88 5.75c-.26 0-.51-.1-.71-.29L.29 3.58a.996.996 0 0 1 0-1.41L2.17.29A.996.996 0 1 1 3.58 1.7L2.41 2.87l1.17 1.17a.996.996 0 0 1-.71 1.7l.01.01zM7.89 5.75c-.26 0-.51-.1-.71-.29L5.3 3.58a.996.996 0 0 1 0-1.41L7.18.29A.996.996 0 1 1 8.59 1.7L7.42 2.87l1.17 1.17a.996.996 0 0 1-.71 1.7l.01.01z" fill="#fff"/></g><defs><clipPath id="a"><path fill="#fff" d="M0 0h23.36v23.36H0z"/></clipPath></defs></svg>