<svg width="32" height="32" fill="none" xmlns="http://www.w3.org/2000/svg"><path d="M26 16c0-.307-.014-.6-.04-.907l2.48-1.88c.533-.4.68-1.146.346-1.733l-2.493-4.307a1.316 1.316 0 0 0-1.667-.56L21.76 7.826a10.122 10.122 0 0 0-1.56-.906l-.387-3.08a1.337 1.337 0 0 0-1.32-1.173H13.52a1.34 1.34 0 0 0-1.334 1.173L11.8 6.92c-.547.253-1.067.56-1.56.907L7.373 6.613a1.316 1.316 0 0 0-1.667.56l-2.493 4.32a1.344 1.344 0 0 0 .347 1.733l2.48 1.88a9.735 9.735 0 0 0 0 1.8l-2.48 1.88c-.534.4-.68 1.147-.347 1.734l2.493 4.306a1.316 1.316 0 0 0 1.667.56l2.867-1.213c.493.347 1.013.654 1.56.907l.386 3.08c.08.666.654 1.173 1.32 1.173h4.974c.666 0 1.24-.506 1.32-1.173l.386-3.08c.547-.253 1.067-.56 1.56-.907l2.867 1.214a1.316 1.316 0 0 0 1.667-.56l2.493-4.307a1.344 1.344 0 0 0-.347-1.733l-2.48-1.88c.04-.307.054-.6.054-.907zm-9.947 4.666A4.672 4.672 0 0 1 11.386 16a4.672 4.672 0 0 1 4.667-4.667A4.672 4.672 0 0 1 20.72 16a4.672 4.672 0 0 1-4.667 4.666z" fill="#D71921"/><circle cx="16" cy="16" r="4" fill="#fff"/></svg>