<svg width="26" height="24" fill="none" xmlns="http://www.w3.org/2000/svg"><g clip-path="url(#a)"><path d="M24.91 4.66H13.58c-.55 0-1-.45-1-1s.45-1 1-1h11.33c.55 0 1 .45 1 1s-.45 1-1 1z" fill="#191919"/><path d="M4.98 4.66H1c-.55 0-1-.45-1-1s.45-1 1-1h3.98c.55 0 1 .45 1 1s-.45 1-1 1z" fill="#D71921"/><path d="M7.64 7.31c-2.02 0-3.66-1.64-3.66-3.66C3.98 1.63 5.62 0 7.64 0c2.02 0 3.66 1.64 3.66 3.66 0 2.02-1.64 3.66-3.66 3.66v-.01zm0-5.31c-.91 0-1.66.74-1.66 1.66 0 .92.74 1.66 1.66 1.66.92 0 1.66-.74 1.66-1.66C9.3 2.74 8.56 2 7.64 2z" fill="#D71921"/><path d="M24.91 20.59H13.58c-.55 0-1-.45-1-1s.45-1 1-1h11.33c.55 0 1 .45 1 1s-.45 1-1 1z" fill="#191919"/><path d="M4.98 20.59H1c-.55 0-1-.45-1-1s.45-1 1-1h3.98c.55 0 1 .45 1 1s-.45 1-1 1z" fill="#D71921"/><path d="M7.64 23.25c-2.02 0-3.66-1.64-3.66-3.66 0-2.02 1.64-3.66 3.66-3.66 2.02 0 3.66 1.64 3.66 3.66 0 2.02-1.64 3.66-3.66 3.66zm0-5.31c-.91 0-1.66.74-1.66 1.66 0 .92.74 1.66 1.66 1.66.92 0 1.66-.74 1.66-1.66 0-.92-.74-1.66-1.66-1.66z" fill="#D71921"/><path d="M12.17 12.62H1c-.55 0-1-.45-1-1s.45-1 1-1h11.17c.55 0 1 .45 1 1s-.45 1-1 1z" fill="#191919"/><path d="M24.91 12.62h-3.98c-.55 0-1-.45-1-1s.45-1 1-1h3.98c.55 0 1 .45 1 1s-.45 1-1 1z" fill="#D71921"/><path d="M18.27 15.28c-2.02 0-3.66-1.64-3.66-3.66 0-2.02 1.64-3.66 3.66-3.66 2.02 0 3.66 1.64 3.66 3.66 0 2.02-1.64 3.66-3.66 3.66zm0-5.31c-.91 0-1.66.74-1.66 1.66 0 .92.74 1.66 1.66 1.66.92 0 1.66-.74 1.66-1.66 0-.92-.74-1.66-1.66-1.66z" fill="#D71921"/></g><defs><clipPath id="a"><path fill="#fff" d="M0 0h25.91v23.25H0z"/></clipPath></defs></svg>