<svg width="27" height="19" fill="none" xmlns="http://www.w3.org/2000/svg"><path d="M12.346 18.992c-1.267 0-2.31-.898-2.464-2.055H.856c-.471 0-.856-.364-.856-.809 0-.444.385-.809.856-.809H7.69V4.618H.856c-.471 0-.856-.364-.856-.81C0 3.365.385 3 .856 3h7.691c.47 0 .856.364.856.809v3.3h2.943c.24 0 .47.097.633.267l3.799 3.964c.145.145.222.34.222.542v4.255c0 .444-.385.808-.856.808H14.81C14.656 18.102 13.612 19 12.346 19v-.008zm-.77-2.354c0 .404.35.728.77.728.419 0 .77-.332.77-.728 0-.3-.188-.55-.454-.663-.094-.04-.188-.04-.316-.065h-.017a.734.734 0 0 0-.266.049.76.76 0 0 0-.453.436v.008a.714.714 0 0 0-.043.235h.009zm2.07-1.998c.3.17.556.404.753.68h.89v-3.13l-3.32-3.463H9.403v6.592h.89a2.526 2.526 0 0 1 2.045-1.027h.025c.47 0 .915.13 1.283.348z" fill="#fff"/><path d="M22.316 15.992c-1.259 0-2.296-.898-2.449-2.055h-1.343a.86.86 0 0 1-.544-.202.796.796 0 0 1-.23-.542V1.618h-5.9c-.467 0-.85-.364-.85-.81 0-.444.383-.808.85-.808h6.75c.468 0 .85.364.85.809v3.3h2.925a.87.87 0 0 1 .63.267l3.774 3.964c.145.145.221.34.221.542v4.255c0 .444-.383.808-.85.808h-1.326C24.67 15.102 23.634 16 22.375 16l-.06-.008zm-.774-2.354c0 .405.348.728.765.728.417 0 .765-.332.765-.728a.682.682 0 0 0-.042-.235v-.016a.736.736 0 0 0-.298-.356.805.805 0 0 0-.416-.121h-.009c-.11-.024-.212.024-.314.065a.725.725 0 0 0-.451.663zm2.193-1.909c.238.162.451.364.613.599h.884v-3.13l-3.308-3.463h-2.55v6.593h.884c.196-.275.46-.51.748-.68a2.518 2.518 0 0 1 1.276-.348h.017c.527 0 1.011.162 1.42.429h.016z" fill="#fff"/></svg>