<svg width="30" height="30" fill="none" xmlns="http://www.w3.org/2000/svg"><path d="M14.134 25a2.28 2.28 0 0 1-2.279-2.155H2.66a.659.659 0 0 1-.658-.656c0-.36.296-.655.659-.655h7.02V9.905h-7.02A.659.659 0 0 1 2 9.25c.001-.36.297-.655.66-.655h7.68c.362 0 .658.295.658.655v3.656h3.135a.66.66 0 0 1 .488.216l3.793 4.16a.634.634 0 0 1 .172.44v4.467c0 .36-.297.655-.659.655h-1.515A2.28 2.28 0 0 1 14.134 25zm-.968-2.273a.967.967 0 0 0 1.936 0 .954.954 0 0 0-.961-.957c-.158 0-.31.04-.448.111a.959.959 0 0 0-.52.852l-.007-.006zm-2.167-1.193h1.192a2.291 2.291 0 0 1 1.936-1.081c.429 0 .837.125 1.18.334.303.184.566.44.757.747h1.192v-3.557l-3.425-3.754h-2.845v7.318l.013-.007zM24.487 22.405a2.28 2.28 0 0 1-2.279-2.155h-1.521a.653.653 0 0 1-.158-.02.66.66 0 0 1-.435-.439V7.311h-6.119a.659.659 0 0 1-.659-.656c0-.36.297-.655.66-.655h6.777c.362 0 .658.295.658.655v3.656h3.135a.66.66 0 0 1 .488.216l3.794 4.16a.634.634 0 0 1 .17.44v4.468c0 .36-.296.655-.658.655h-1.515a2.28 2.28 0 0 1-2.279 2.155h-.059zm-.968-2.273a.967.967 0 0 0 1.936 0 .954.954 0 0 0-.533-.858 1.056 1.056 0 0 0-.428-.105.96.96 0 0 0-.428.105.961.961 0 0 0-.534.858h-.013zm2.154-1.94c.303.184.566.44.757.748h1.192v-3.558l-3.425-3.754h-2.845v7.318h1.192a2.31 2.31 0 0 1 1.936-1.081c.429 0 .83.125 1.18.328h.013z" fill="#fff"/><path d="M19.638 6.655h-5.724v6.466l4.44 4.757v1.716h2.338V6.655h-1.054z" fill="#fff"/><path d="M20.692 20.25h-2.338a.659.659 0 0 1-.659-.655v-1.461l-4.261-4.567a.669.669 0 0 1-.178-.445V6.655c0-.36.296-.655.659-.655h6.777c.362 0 .659.295.659.655v12.94c0 .36-.297.655-.659.655zm-1.68-1.31h1.021V7.31h-5.46v5.556l4.262 4.567a.669.669 0 0 1 .177.445v1.061zM10.338 9.25h-7.68v12.94h7.68V9.25z" fill="#fff"/><path d="M10.338 22.844h-7.68A.659.659 0 0 1 2 22.19V9.25c0-.36.296-.655.659-.655h7.68c.362 0 .658.295.658.656v12.94c0 .36-.296.654-.659.654zm-7.02-1.31H9.68V9.904H3.317v11.63zM15.416 21.495h-2.41v2.398h2.41v-2.398zM25.692 18.664h-2.41v2.398h2.41v-2.398z" fill="#fff"/></svg>