<svg width="36" height="30" fill="none" xmlns="http://www.w3.org/2000/svg"><path d="M30.281 24.43h4.063v-8.084L27.52 8.819h-6.825v15.625m9.587-.013a2.92 2.92 0 0 0-2.762-1.955m2.762 1.955c.106.306.16.638.16.97a2.923 2.923 0 0 0-2.922-2.925m0 0a2.92 2.92 0 0 0-2.762 1.955m2.762-1.955a2.923 2.923 0 0 0-2.921 2.926c0-.333.053-.665.16-.971m0 0h-4.064m0 0V1H15.37m5.325 23.43H6.884M4.11 22.477a2.92 2.92 0 0 1 2.762 1.955c.106.306.16.638.16.97m-2.909-2.925a2.92 2.92 0 0 0-2.761 1.955c-.107.306-.16.638-.16.97a2.923 2.923 0 0 1 2.921-2.925zm0 0a2.923 2.923 0 0 1 2.922 2.926m23.396.013a2.923 2.923 0 0 1-2.92 2.925 2.932 2.932 0 0 1-2.922-2.925m-17.554 0a2.923 2.923 0 0 1-2.922 2.925 2.932 2.932 0 0 1-2.92-2.925" stroke="#fff" stroke-width="2" stroke-linecap="round" stroke-linejoin="round"/></svg>