<svg width="35" height="35" fill="none" xmlns="http://www.w3.org/2000/svg"><path d="M8.75 21.875h2.917m14.583 0v4.375c0 2.75 0 4.124-.684 4.979-.651.816-1.684.853-3.69.854M26.261 8.75h-.015m-14.58 23.333H8.75c-2.75 0-4.124 0-4.978-.854-.855-.855-.855-2.229-.855-4.98v-2.916c0-2.75 0-4.124.855-4.979C4.626 17.5 6 17.5 8.75 17.5h2.917c2.75 0 4.124 0 4.979.854.854.855.854 2.229.854 4.98v2.916c0 2.75 0 4.124-.854 4.979-.855.854-2.229.854-4.979.854zM26.25 2.917c-3.223 0-5.833 2.638-5.833 5.891 0 1.861.73 3.308 2.188 4.6 1.028.911 2.273 2.425 3.02 3.65.358.59.866.59 1.251 0 .784-1.202 1.992-2.739 3.02-3.649 1.459-1.293 2.188-2.74 2.188-4.6 0-3.253-2.61-5.892-5.834-5.892z" stroke="#191919" stroke-width="1.5" stroke-linecap="round" stroke-linejoin="round"/></svg>