<svg width="11" height="24" fill="none" xmlns="http://www.w3.org/2000/svg"><g clip-path="url(#a)"><path d="M5.976 10.748a.473.473 0 0 0-.947 0v12.78a.473.473 0 0 0 .947 0v-12.78z" fill="#191919"/><path d="M5.502 10.987a5.498 5.498 0 0 0 5.502-5.494A5.498 5.498 0 0 0 5.502 0 5.498 5.498 0 0 0 0 5.493a5.498 5.498 0 0 0 5.502 5.494z" fill="url(#b)"/><path opacity=".1" d="M7.404 4.654a1.15 1.15 0 1 0 .002-2.298 1.15 1.15 0 0 0-.002 2.298z" fill="#fff"/></g><defs><radialGradient id="b" cx="0" cy="0" r="1" gradientUnits="userSpaceOnUse" gradientTransform="matrix(13.0611 0 0 13.0399 5.502 5.493)"><stop stop-color="#3C3C3B"/><stop offset=".32" stop-color="#232323"/><stop offset=".75" stop-color="#090909"/><stop offset="1"/></radialGradient><clipPath id="a"><path fill="#fff" d="M0 0h11v24H0z"/></clipPath></defs></svg>