<svg width="65" height="23" fill="none" xmlns="http://www.w3.org/2000/svg"><g clip-path="url(#a)"><path d="M52.493 15.242c0 .219-.028.443-.083.677a3.05 3.05 0 0 1-.249.686 3.155 3.155 0 0 1-.425.635 2.667 2.667 0 0 1-.62.53c-.241.153-.515.271-.822.36a4.002 4.002 0 0 1-1.098.133h-1.295l-.639 3.1a.131.131 0 0 1-.033.068.177.177 0 0 1-.076.05.764.764 0 0 1-.128.033 1.444 1.444 0 0 1-.359.003.38.38 0 0 1-.118-.03.123.123 0 0 1-.064-.05.088.088 0 0 1-.006-.074l1.554-7.587c.03-.15.094-.254.191-.31a.615.615 0 0 1 .314-.086h1.547c.21 0 .396.009.554.02.158.015.31.039.456.072.219.05.416.127.59.23a1.596 1.596 0 0 1 .714.899c.061.195.095.404.095.635v.006zm-.837.07c0-.289-.073-.537-.221-.744-.15-.21-.378-.352-.688-.431a1.952 1.952 0 0 0-.368-.057 6.23 6.23 0 0 0-.413-.011h-1.204l-.715 3.52h1.204c.335 0 .62-.036.852-.107.23-.07.434-.165.605-.283.173-.119.319-.258.438-.414a2.26 2.26 0 0 0 .291-.488 2.464 2.464 0 0 0 .216-.981l.003-.003zM58.266 21.233a.388.388 0 0 1 .006.154.152.152 0 0 1-.061.091.323.323 0 0 1-.14.042 2.462 2.462 0 0 1-.395 0 .34.34 0 0 1-.116-.03.148.148 0 0 1-.06-.05.192.192 0 0 1-.025-.074l-.356-2.16h-3.661l-1.22 2.16a.218.218 0 0 1-.14.124.98.98 0 0 1-.142.03 2.021 2.021 0 0 1-.204.009 1.6 1.6 0 0 1-.225-.012.287.287 0 0 1-.13-.045c-.028-.02-.04-.05-.037-.088a.431.431 0 0 1 .058-.151l4.506-7.711a.42.42 0 0 1 .076-.086.31.31 0 0 1 .11-.053c.042-.012.094-.021.152-.03a1.979 1.979 0 0 1 .398 0 .664.664 0 0 1 .146.03c.04.012.07.03.091.053.018.024.03.05.037.086l1.335 7.711h-.003zm-1.974-7.029h-.006l-2.47 4.36h3.19l-.714-4.36zM61.564 18.295l-.633 3.071a.222.222 0 0 1-.04.068.178.178 0 0 1-.075.05.764.764 0 0 1-.128.033 1.118 1.118 0 0 1-.186.012c-.072 0-.133-.003-.182-.012a.413.413 0 0 1-.115-.033.1.1 0 0 1-.055-.05.104.104 0 0 1-.006-.068l.632-3.071-1.438-4.655a.565.565 0 0 1-.028-.15c0-.04.01-.069.034-.09a.232.232 0 0 1 .115-.044c.055-.009.131-.012.229-.012.082 0 .149.003.203.01a.308.308 0 0 1 .131.038.27.27 0 0 1 .082.07c.018.03.037.069.049.113l.72 2.373a18.034 18.034 0 0 1 .42 1.596h.012c.177-.266.353-.532.53-.792.176-.26.358-.526.547-.798l1.715-2.412a.423.423 0 0 1 .082-.094.3.3 0 0 1 .103-.062.608.608 0 0 1 .15-.036c.057-.006.13-.009.221-.009.107 0 .189.01.243.021.055.015.089.036.104.06.015.023.015.055-.003.094a.7.7 0 0 1-.07.118l-3.351 4.655-.012.006z" fill="#fff"/><path d="M28.224 13.534a2.375 2.375 0 0 1-.043.36c-.015.08-.033.166-.058.251a1.716 1.716 0 0 1-.085.24.61.61 0 0 1-.118.177c-.046.048-.095.071-.146.071h-2.126l-1.36 6.627a.266.266 0 0 1-.072.115.383.383 0 0 1-.161.083 1.68 1.68 0 0 1-.274.05c-.11.012-.252.018-.422.018-.17 0-.305-.006-.411-.018a1.198 1.198 0 0 1-.252-.05c-.061-.02-.098-.047-.119-.083a.15.15 0 0 1-.015-.115l1.359-6.627h-2.104c-.064 0-.11-.023-.134-.07a.412.412 0 0 1-.037-.19 1.864 1.864 0 0 1 .043-.372 2.76 2.76 0 0 1 .058-.255c.024-.085.055-.165.088-.239a.598.598 0 0 1 .119-.174.198.198 0 0 1 .142-.068h5.96c.052 0 .092.023.122.07a.393.393 0 0 1 .043.199h.003zM33.727 20.866c.021.154.03.272.03.364a.238.238 0 0 1-.09.201c-.059.044-.156.07-.293.083-.137.012-.319.015-.556.015-.164 0-.301-.003-.405-.01a1.086 1.086 0 0 1-.243-.035c-.058-.018-.097-.041-.118-.077a.318.318 0 0 1-.04-.139l-.228-1.652h-3.178l-.875 1.614a.636.636 0 0 1-.104.15.37.37 0 0 1-.17.092 1.55 1.55 0 0 1-.298.045 6.89 6.89 0 0 1-.468.012c-.201 0-.356-.006-.469-.018-.112-.012-.185-.044-.222-.092-.036-.047-.042-.118-.012-.207.028-.088.085-.207.168-.354l4.105-7.295a.99.99 0 0 1 .13-.174.393.393 0 0 1 .186-.1 1.42 1.42 0 0 1 .325-.045 16.365 16.365 0 0 1 1.15 0c.149.006.267.02.35.044.081.024.136.06.163.104.028.044.043.109.052.189l1.104 7.288.006-.003zm-2.57-6.03h-.006l-1.888 3.495h2.378l-.483-3.494zM36.564 21.268a.244.244 0 0 1-.064.116.352.352 0 0 1-.161.082c-.073.021-.164.039-.277.048a5.43 5.43 0 0 1-.42.015c-.167 0-.307-.006-.416-.015a1.054 1.054 0 0 1-.253-.047c-.06-.021-.103-.048-.124-.083a.127.127 0 0 1-.012-.116l1.602-7.776a.18.18 0 0 1 .06-.115.382.382 0 0 1 .165-.083c.073-.02.164-.038.274-.047.11-.01.25-.015.416-.015.168 0 .301.006.408.015.106.009.191.026.255.047.064.02.104.047.125.083a.15.15 0 0 1 .015.115l-1.596 7.776h.003zM44.7 13.534c0 .026-.002.07-.008.136a2.41 2.41 0 0 1-.034.218c-.015.08-.033.166-.054.252a1.434 1.434 0 0 1-.082.242.587.587 0 0 1-.116.18c-.046.045-.094.071-.15.071h-2.763l-.456 2.211h2.603c.06 0 .103.024.13.07.028.048.04.11.04.184 0 .03-.003.077-.012.142a4.035 4.035 0 0 1-.095.464 1.447 1.447 0 0 1-.085.237.633.633 0 0 1-.115.174.203.203 0 0 1-.15.07h-2.58l-.627 3.069a.236.236 0 0 1-.064.121.352.352 0 0 1-.161.083c-.073.02-.164.038-.277.05a4.133 4.133 0 0 1-.42.018 4.03 4.03 0 0 1-.416-.018 1.2 1.2 0 0 1-.253-.05c-.06-.02-.103-.047-.124-.083a.139.139 0 0 1-.012-.121l1.53-7.46c.039-.187.118-.322.233-.405a.663.663 0 0 1 .392-.124h3.963c.073 0 .121.023.14.07.018.048.03.113.03.199h-.006z" fill="#1D6E41"/><path fill-rule="evenodd" clip-rule="evenodd" d="M21.362 7.755c.365-4.398-1.83-6.783-6.416-6.783H7.584c-1.24 0-2.317 1.052-2.414 2.258l-.119 1.395h9.02c2.07 0 3.037 1.023 2.867 3.068-.17 2.042-1.365 3.065-3.597 3.035H4.55l-.93 11.303h4.43l.614-7.493h5.482c4.334 0 6.876-2.633 7.213-6.783" fill="#fff"/><path fill-rule="evenodd" clip-rule="evenodd" d="M13.779 5.849H3.157C1.85 5.849.606 6.67.393 7.675l-.39 1.827h10.629c1.304 0 2.55-.822 2.764-1.827l.386-1.826" fill="#1D6E41"/></g><defs><clipPath id="a"><path fill="#fff" transform="translate(0 .972)" d="M0 0h65v21.056H0z"/></clipPath></defs></svg>