<svg width="22" height="22" fill="none" xmlns="http://www.w3.org/2000/svg"><g clip-path="url(#a)"><path d="M15.435 17.56c-.262 0-.513-.101-.715-.292a1.003 1.003 0 0 1 0-1.42l5.548-5.548a1.003 1.003 0 1 1 1.42 1.42l-5.548 5.548a.99.99 0 0 1-.715.292h.01zm2.225-8.88c-.261 0-.513-.102-.715-.293L14.72 6.162a1.003 1.003 0 1 1 1.42-1.42l2.225 2.225a1.003 1.003 0 0 1-.715 1.712h.01z" fill="#D71921"/><path d="M20.994 12.002H7.673a1.01 1.01 0 0 1-1.007-1.007 1.01 1.01 0 0 1 1.007-1.007h13.32a1.01 1.01 0 0 1 1.008 1.007 1.01 1.01 0 0 1-1.007 1.007z" fill="#D71921"/><path d="M7.672 22h-4.44a3.257 3.257 0 0 1-2.286-.947A3.222 3.222 0 0 1 0 18.768V3.232C0 2.386.342 1.551.946.946A3.216 3.216 0 0 1 3.222 0h4.44A1.01 1.01 0 0 1 8.67 1.007a1.01 1.01 0 0 1-1.007 1.007h-4.43c-.322 0-.634.13-.856.352a1.238 1.238 0 0 0-.352.856v15.546c0 .322.13.634.352.856.222.221.544.352.856.352h4.44a1.01 1.01 0 0 1 1.007 1.007 1.01 1.01 0 0 1-1.007 1.007V22z" fill="#191919"/></g><defs><clipPath id="a"><path fill="#fff" d="M0 0h22v22H0z"/></clipPath></defs></svg>