<svg width="57" height="54" fill="none" xmlns="http://www.w3.org/2000/svg"><g clip-path="url(#a)"><path d="M15.57 50.95a.443.443 0 0 0-.44 0l-.74.421v1.04c0 .266.083.464.225.546.115.066.262.05.424-.039l.753-.436v-1.153a.426.426 0 0 0-.222-.374v-.004z" fill="#9C93AA"/><path d="M22.081 42.158c.044.023.1 0 .127-.016l1.065-.604c.159-.09.29-.342.29-.553 0-.093-.028-.163-.072-.187a.078.078 0 0 0-.04-.011.191.191 0 0 0-.087.027l-1.065.604c-.159.09-.29.343-.29.553 0 .093.029.164.072.187z" fill="#fff"/><path d="M18.627 50.328c0-2.408.967-4.13 2.955-5.26l2.76-1.605V33.44c0-.234-.071-.409-.194-.479a.267.267 0 0 0-.135-.035.47.47 0 0 0-.23.07l-5.88 3.339c-.448.253-.844.857-.983 1.5l-2.376 10.982a6.394 6.394 0 0 0-.154 1.363v.978l.65-.37a.63.63 0 0 1 .625 0 .613.613 0 0 1 .313.53v1.048l1.354-.787V43.79l-.158-.09-.388.223a.524.524 0 0 1-.262.074.375.375 0 0 1-.214-.066c-.178-.129-.241-.41-.174-.737l1.129-5.205c.08-.358.3-.693.558-.841l5.588-3.156c.159-.09.317-.1.444-.027.146.086.234.269.234.507v4.546c0 .425-.258.904-.586 1.09l-4.777 2.716v.791c0 .164-.063.25-.142.312a.091.091 0 0 1-.028.027l-.016.008-.004.004h-.004l-.3.167-.005.004s-.008 0-.012.004h-.008s-.004.004-.008.004a.251.251 0 0 1-.106.023.343.343 0 0 1-.175-.05l-.396-.226v7.573l1.117-.647v-.502l-.012.011zm3.58-9.066 1.066-.604c.11-.062.222-.07.313-.016.103.059.162.184.162.347 0 .277-.166.589-.38.71l-1.066.603a.355.355 0 0 1-.178.05.252.252 0 0 1-.13-.034c-.103-.059-.163-.183-.163-.347 0-.277.167-.588.38-.709h-.003z" fill="#C2BACC"/><path d="M34.707 14.143c0 2.194.7 4.231 1.897 5.906l-11.042 6.273-13.045-7.395 1.16-.658L34.113 6.663l2.574 1.457a10.129 10.129 0 0 0-1.98 6.023z" fill="#FF403A"/><path d="m17.808 36.178 5.881-3.339a.818.818 0 0 1 .135-.062L12.703 26.47c-.091-.028-.198-.008-.313.058L6.51 29.867c-.448.253-.844.857-.982 1.5l-.515 2.38v.023a.11.11 0 0 1-.016.051l-1.842 8.536-.011.062 11.22 6.37 2.376-10.983c.15-.69.578-1.34 1.069-1.62v-.008zm-1.972-.366a.096.096 0 0 1 .126-.035l.21.12c.044.024.06.082.036.125a.095.095 0 0 1-.08.047c-.015 0-.031 0-.047-.012l-.21-.12a.093.093 0 0 1-.035-.125zm-.63-.355c.024-.043.083-.058.127-.035l.21.12c.043.024.059.083.035.126a.095.095 0 0 1-.079.046c-.016 0-.032 0-.048-.011l-.21-.121a.093.093 0 0 1-.035-.125zm-.63-.358a.096.096 0 0 1 .127-.035l.21.12c.043.024.06.082.035.125a.095.095 0 0 1-.079.047.107.107 0 0 1-.047-.012l-.21-.12a.093.093 0 0 1-.036-.125zm-.63-.359a.096.096 0 0 1 .127-.035l.21.121c.044.023.06.082.036.125a.095.095 0 0 1-.08.047c-.015 0-.031 0-.047-.012l-.21-.121a.093.093 0 0 1-.035-.125zm-.63-.354a.096.096 0 0 1 .128-.035l.21.12c.043.024.059.082.035.125a.095.095 0 0 1-.08.047.107.107 0 0 1-.047-.012l-.21-.12a.093.093 0 0 1-.035-.125zm-.629-.359a.096.096 0 0 1 .127-.035l.21.121c.043.023.06.082.035.125a.095.095 0 0 1-.079.047.107.107 0 0 1-.047-.012l-.21-.12a.093.093 0 0 1-.036-.126zm-.63-.358a.096.096 0 0 1 .127-.035l.21.12c.044.024.06.083.036.125a.095.095 0 0 1-.08.047.108.108 0 0 1-.047-.012l-.21-.12a.093.093 0 0 1-.036-.125zm-.63-.354c.024-.043.084-.059.128-.036l.21.121c.043.024.059.082.035.125a.095.095 0 0 1-.08.047.107.107 0 0 1-.047-.012l-.21-.12a.093.093 0 0 1-.035-.125zm-.629-.359c.024-.043.083-.058.127-.035l.21.12c.043.024.06.083.035.126a.095.095 0 0 1-.079.046.107.107 0 0 1-.047-.011l-.21-.121a.093.093 0 0 1-.036-.125zm-.63-.358a.096.096 0 0 1 .127-.035l.21.12c.043.024.06.082.036.125a.095.095 0 0 1-.08.047.106.106 0 0 1-.047-.012l-.21-.12a.093.093 0 0 1-.036-.125zm-.625-.359a.096.096 0 0 1 .126-.035l.21.121c.044.023.06.082.036.125a.095.095 0 0 1-.08.046.107.107 0 0 1-.047-.011l-.21-.121a.093.093 0 0 1-.035-.125zm-.63-.354a.096.096 0 0 1 .127-.035l.21.12c.043.024.059.082.035.125a.095.095 0 0 1-.08.047.107.107 0 0 1-.047-.012l-.21-.12a.093.093 0 0 1-.035-.125zm-.63-.359a.096.096 0 0 1 .127-.035l.21.121c.043.023.06.082.035.125a.095.095 0 0 1-.079.047.107.107 0 0 1-.047-.012l-.21-.121a.093.093 0 0 1-.036-.125zm-.63-.358a.096.096 0 0 1 .127-.035l.21.12c.044.024.06.082.036.125a.095.095 0 0 1-.08.047.108.108 0 0 1-.047-.012l-.21-.12a.093.093 0 0 1-.036-.125zm-.63-.355c.025-.043.084-.058.128-.035l.21.121c.043.023.059.082.035.125a.095.095 0 0 1-.08.046c-.015 0-.03 0-.047-.011l-.21-.12a.093.093 0 0 1-.035-.126zm-.526-.3a.096.096 0 0 1 .127-.035l.107.059c.043.023.06.082.035.125a.095.095 0 0 1-.079.046c-.016 0-.032 0-.047-.011l-.107-.059a.093.093 0 0 1-.036-.125zm10.008 7.445-1.315 5.934a.51.51 0 0 1-.3.362.526.526 0 0 1-.475-.027l-9.87-5.602a.513.513 0 0 1-.25-.558l1.362-6.163a.34.34 0 0 1 .202-.241.349.349 0 0 1 .317.015l10.071 5.72a.513.513 0 0 1 .25.556l.008.004zm.143-1.59s-.032-.003-.048-.01l-.107-.063a.093.093 0 0 1-.036-.125.096.096 0 0 1 .127-.035l.107.062c.044.024.06.082.036.125a.095.095 0 0 1-.08.047z" fill="#DFD9E4"/><path d="M23.404 39.96c.266-.151.491-.58.491-.934v-4.547c0-.171-.051-.3-.138-.35-.087-.05-.19-.012-.258.027l-5.588 3.156c-.21.117-.404.413-.467.72l-.546 2.517.368-.199a.1.1 0 0 1 .075-.004c.06 0 .119.012.182.043l.828.468c.21.117.372.42.372.693v1.068l4.685-2.661-.004.004z" fill="#353535"/><path d="m17.174 43.502.828.467c.027.016.075.036.114.02h.008c.04-.031.064-.097.064-.183v-2.069c0-.202-.127-.448-.281-.534l-.828-.467s-.052-.027-.083-.027c-.012 0-.02 0-.032.008l-.012.007c-.04.028-.063.094-.063.176v2.068c0 .203.126.448.28.534h.005z" fill="#fff"/><path d="M21.582 45.458c.36-.203.713-.3 1.042-.292l-.424-.242-.523.304c-1.928 1.094-2.863 2.762-2.863 5.1v.553a.09.09 0 0 1-.044.078l-.198.112.927.526c-.245-.377-.38-.9-.38-1.515 0-1.78 1.105-3.853 2.467-4.628l-.004.004z" fill="#2D2D2D"/><path d="M16.165 37.56 6.094 31.843a.168.168 0 0 0-.084-.023.132.132 0 0 0-.067.015.169.169 0 0 0-.095.117l-1.362 6.163a.323.323 0 0 0 .162.358l9.87 5.603a.337.337 0 0 0 .304.015.333.333 0 0 0 .194-.234l1.315-5.933a.323.323 0 0 0-.162-.358l-.004-.004z" fill="#494949"/><path d="m18.37 43.849.06-.031c.071-.051.103-.09.103-.195v-2.069c0-.203-.127-.448-.281-.534l-.828-.467c-.036-.023-.071-.031-.099-.023l-.127.066.8.456c.21.116.372.42.372.693v2.112-.008z" fill="#DFD9E4"/><path d="M16.31 43.237c-.054.253-.015.471.1.553.087.063.198.024.277-.02l.31-.175a.887.887 0 0 1-.29-.63v-1.567l-.396 1.84z" fill="#353535"/><path d="M4.671 33.961v.503l.159-.725c-.016-.195-.135-.417-.278-.498l-.827-.468c-.04-.02-.072-.031-.1-.023l-.126.066.8.456c.21.117.372.42.372.693v-.004z" fill="#DFD9E4"/><path d="m11.415 49.556.286-.214-6.036-3.428.238.514 5.513 3.128zM12.212 48.964l-6.979-3.966.297.631 6.33 3.596.352-.261z" fill="#494949"/><path d="M12.766 26.298s.008.004.012.008a.03.03 0 0 1 .016.004l11.442 6.486h.008c.182.105.289.335.289.635V43.51a.09.09 0 0 1-.044.078l-.368.214 1.362.771-.008-18.1-13.041-7.394v7.23a.516.516 0 0 1 .34-.015l-.008.004z" fill="#E22323"/><path d="M22.16 47.589a.363.363 0 0 0-.181-.047.647.647 0 0 0-.305.09c-.46.26-.836.97-.836 1.577 0 .304.095.53.257.624.131.074.301.058.483-.047.46-.261.836-.97.836-1.578 0-.304-.095-.53-.257-.623l.004.004z" fill="#fff"/><path d="m12.68 48.613-7.838-4.449.257.55 7.275 4.13.305-.23z" fill="#494949"/><path d="M4.49 35.317v-1.352c0-.202-.127-.448-.282-.534l-.828-.467c-.027-.016-.075-.035-.11-.02l-.012.008c-.04.028-.064.094-.064.176v2.068c0 .203.127.448.282.534l.82.487.193-.896v-.004z" fill="#fff"/><path d="M13.12 48.29 4.473 43.38l.233.499 8.135 4.616.277-.206z" fill="#494949"/><path d="m11.59 49.654 2.614 1.484v-.955c0-.385.043-.794.122-1.207l-1.033-.589-1.703 1.267z" fill="#fff"/><path d="m22.382 44.815.89.503s.033.027.04.046c.14.09.262.203.369.34l1.707-.97-1.454-.823-1.552.904z" fill="#494949"/><path d="m14.204 51.348-2.812-1.597s-.028-.012-.04-.023L3 44.986v.959c0 .253.075.444.206.533l11.053 6.277a1.132 1.132 0 0 1-.055-.343v-1.064z" fill="#C2BACC"/><path d="m4.196 43.225-1.09-.619A6.454 6.454 0 0 0 3 43.72v1.06l2.626 1.492-1.434-3.047h.004zM40.58 38.757c.131.074.302.058.484-.047.46-.26.836-.97.836-1.578 0-.257-.072-.455-.195-.568l-1.132.642c-.159.296-.25.635-.25.928 0 .292.095.53.258.623z" fill="#fff"/><path d="m25.618 44.815-1.83 1.04c.1.16.178.347.234.553l15.568-8.851h.004l2.071-1.177 4.666-2.653v-.677L25.614 44.815h.004z" fill="#353535"/><path d="M39.72 37.693a3.27 3.27 0 0 0-.118.85c0 .576.186 1.013.507 1.196.26.148.602.117.958-.082.86-.487 1.556-1.804 1.556-2.934 0-.233-.031-.444-.09-.627l-.662.374c.139.152.214.378.214.662 0 .666-.416 1.446-.927 1.734a.796.796 0 0 1-.396.117c-.1 0-.19-.023-.273-.07-.222-.125-.353-.41-.353-.78 0-.245.056-.51.159-.767l-.579.327h.004zm2.622-.974c.091-.05.166 0 .166.125s-.075.261-.166.312c-.09.05-.166 0-.166-.125s.075-.261.166-.312zm-.48 1.477c.064-.12.171-.18.235-.133.063.047.063.188 0 .308-.064.121-.17.183-.234.133-.063-.051-.063-.187 0-.308zm-.752.837c.092-.05.167 0 .167.125s-.075.261-.166.312c-.092.05-.167 0-.167-.125 0-.124.075-.26.166-.312zm-1.235-.479c-.091.051-.166 0-.166-.124 0-.125.075-.261.166-.312.09-.05.166 0 .166.125 0 .124-.075.26-.166.311zm.479.499c.063.047.063.187 0 .308-.063.12-.17.179-.234.132-.063-.047-.063-.187 0-.308.064-.12.17-.179.234-.132z" fill="#fff"/><path d="m38.656 38.297-1.589.904c.131.238.301.42.511.538.004 0 .008.008.012.011l1.402.795c-.253-.382-.396-.908-.396-1.535 0-.23.024-.467.06-.713z" fill="#2D2D2D"/><path d="M42.691 36.007c.075.21.111.451.111.72 0 1.189-.74 2.575-1.647 3.09a1.407 1.407 0 0 1-.686.202.924.924 0 0 1-.459-.117c-.38-.218-.602-.709-.602-1.352 0-.233.028-.475.083-.724l-.637.362c-.052.285-.08.561-.08.826 0 .888.29 1.562.792 1.847.408.233.94.187 1.494-.125 1.306-.744 2.372-2.746 2.372-4.468 0-.23-.024-.445-.064-.647l-.685.39.008-.005z" fill="#353535"/><path d="m46.533 30.958-1.264.716v.838l1.264-.717v-.837zM25.661 41.609l21.588-12.26v-.889L25.661 40.72v.889z" fill="#fff"/><path d="m25.665 44.577 20.69-11.75a.083.083 0 0 1 .07-.038l.824-.468v-2.758l-21.588 12.26v2.758l.004-.004zm19.418-12.953c0-.031.016-.063.047-.078l1.45-.822a.093.093 0 0 1 .139.078v1.048a.086.086 0 0 1-.048.078l-1.45.822s-.031.011-.047.011a.107.107 0 0 1-.047-.011.093.093 0 0 1-.048-.078v-1.048h.004zM26.429 42.232c0-.031.016-.062.048-.078l1.45-.822a.093.093 0 0 1 .139.078v1.048a.085.085 0 0 1-.048.078l-1.45.822s-.032.012-.048.012a.107.107 0 0 1-.047-.012.093.093 0 0 1-.047-.078v-1.048h.003z" fill="#D61914"/><path d="M47.043 24.3 32.53 32.54a.09.09 0 0 0-.044.077V34.3l-2.396-1.78 2.396-4.5v1.496a.09.09 0 0 0 .044.078.103.103 0 0 0 .094 0l9.72-5.52c.906.257 1.865.39 2.855.39.63 0 1.247-.055 1.845-.164z" fill="#fff"/><path d="M47.25 24.39v3.86L25.66 40.51l-.008-14.033 11.058-6.28a10.49 10.49 0 0 0 5.386 3.806l-9.43 5.357v-1.71a.088.088 0 0 0-.067-.086.092.092 0 0 0-.107.047l-2.602 4.893a.09.09 0 0 0 .024.113l2.606 1.936s.035.02.055.02c.016 0 .028-.004.04-.008a.09.09 0 0 0 .051-.082v-1.811l14.582-8.283z" fill="#D61914"/><path d="M14.564 44.164c.115.063.452-.054.5-.167.126-.308.269-.928.324-1.734l-7.643-4.34c-.745-.42-1.882-.467-2.523-.101l-.792.448s.103.245.174.288c2.812 1.64 7.438 4.215 9.956 5.606h.004zM23.166 45.489a1.166 1.166 0 0 0-.574-.148c-.285 0-.598.09-.915.273-1.31.744-2.372 2.75-2.372 4.468 0 .888.289 1.562.792 1.847.408.233.938.187 1.493-.125 1.307-.744 2.372-2.75 2.372-4.468 0-.889-.289-1.563-.792-1.847h-.004zm-1.489 5.403a1.407 1.407 0 0 1-.685.203.925.925 0 0 1-.46-.117c-.38-.218-.602-.709-.602-1.352 0-1.188.741-2.575 1.648-3.09.416-.237.82-.264 1.14-.081.38.218.602.71.602 1.352 0 1.188-.74 2.575-1.647 3.09l.004-.005z" fill="#353535"/><path d="m27.88 41.566-1.268.717v.837l1.268-.717v-.837zM22.632 46.603a.735.735 0 0 0-.364-.093c-.183 0-.384.058-.59.175-.86.487-1.557 1.804-1.557 2.933 0 .577.186 1.013.507 1.197.261.148.602.12.958-.082.86-.487 1.557-1.804 1.557-2.934 0-.576-.186-1.013-.507-1.196h-.004zm-1.002.273c.091-.05.166 0 .166.125 0 .124-.075.26-.166.311-.091.05-.166 0-.166-.124 0-.125.075-.262.166-.312zm-.99 1.099c.063-.121.17-.18.234-.133.063.047.063.187 0 .308-.064.12-.17.179-.234.132-.064-.046-.064-.187 0-.307zm-.242 1.651c-.09.05-.166 0-.166-.124 0-.125.075-.261.166-.312.091-.05.167 0 .167.125 0 .124-.076.26-.167.311zm.476.81c-.064.121-.17.18-.234.133-.064-.047-.064-.187 0-.308.063-.12.17-.179.234-.132.063.047.063.187 0 .308zm.756.11c-.091.05-.166 0-.166-.125s.075-.261.166-.312c.091-.05.166 0 .166.125s-.075.261-.166.312zm.047-.604a.794.794 0 0 1-.395.117.549.549 0 0 1-.274-.07c-.222-.125-.352-.41-.352-.78 0-.666.416-1.445.927-1.733.241-.136.479-.152.669-.047.222.129.352.41.352.78 0 .665-.416 1.445-.927 1.733zm.943-.495c-.063.12-.17.18-.234.133-.063-.047-.063-.188 0-.308.064-.121.17-.18.234-.133.063.047.063.187 0 .308zm0-2.287c-.063.121-.17.18-.234.133-.063-.047-.063-.187 0-.308.064-.12.17-.183.234-.133.063.047.063.188 0 .308zm.242.631c.09-.05.166 0 .166.125s-.075.261-.166.312c-.091.05-.167 0-.167-.125s.076-.261.167-.312z" fill="#fff"/><path d="M45.13 32.75a.2.2 0 0 0 .048.011.107.107 0 0 0 .047-.012l1.45-.822a.093.093 0 0 0 .048-.077v-1.048a.086.086 0 0 0-.048-.078.095.095 0 0 0-.091 0l-1.45.822a.093.093 0 0 0-.047.078v1.048c0 .03.016.062.047.078h-.004zm.14-1.076 1.262-.716v.837l-1.263.717v-.838zM26.473 43.358s.032.012.048.012a.107.107 0 0 0 .047-.012l1.45-.822a.093.093 0 0 0 .047-.078V41.41a.086.086 0 0 0-.047-.078.095.095 0 0 0-.091 0l-1.45.822a.093.093 0 0 0-.047.078v1.048c0 .031.015.062.047.078h-.004zm.139-1.075 1.263-.717v.837l-1.263.717v-.837zM21.99 42.314c.04.023.088.035.131.035.06 0 .12-.016.178-.05l1.066-.605c.214-.12.38-.432.38-.709 0-.16-.06-.288-.162-.346-.091-.051-.202-.047-.313.015l-1.066.604c-.213.12-.38.432-.38.71 0 .159.06.287.163.346h.004zm.313-.896 1.066-.604a.19.19 0 0 1 .087-.027c.016 0 .028 0 .04.011.043.024.07.094.07.187 0 .21-.13.464-.288.554l-1.066.603c-.027.016-.083.04-.126.016-.044-.023-.072-.093-.072-.187 0-.21.131-.464.29-.553zM22.251 47.429c-.19-.11-.427-.09-.669.047-.51.292-.927 1.067-.927 1.733 0 .37.127.655.353.78.083.046.174.07.273.07a.796.796 0 0 0 .396-.117c.51-.292.927-1.068.927-1.734 0-.37-.127-.654-.353-.779zm-.669 2.357c-.182.105-.352.12-.483.047-.163-.094-.258-.32-.258-.624 0-.607.377-1.316.836-1.577a.604.604 0 0 1 .305-.09c.067 0 .127.015.182.047.163.093.258.32.258.623 0 .608-.377 1.317-.836 1.578l-.004-.004z" fill="#1E1E1E"/><path d="M22.723 46.447c-.321-.183-.725-.152-1.14.082-.912.518-1.648 1.901-1.648 3.09 0 .642.217 1.137.602 1.351a.925.925 0 0 0 .459.117c.214 0 .448-.066.685-.202.911-.519 1.648-1.905 1.648-3.09 0-.643-.218-1.137-.602-1.352l-.004.004zm-1.14 4.286c-.357.202-.698.23-.96.082-.32-.184-.506-.62-.506-1.197 0-1.13.697-2.446 1.556-2.933.206-.117.408-.175.59-.175.131 0 .258.03.365.093.324.183.507.62.507 1.196 0 1.13-.698 2.447-1.557 2.934h.004z" fill="#1E1E1E"/><path d="M21.63 47.312c.09-.05.166-.19.166-.311s-.076-.176-.167-.125c-.09.05-.166.19-.166.312 0 .12.075.175.166.124zM21.63 50.11c-.092.05-.167.19-.167.311 0 .12.075.175.166.125.091-.051.167-.191.167-.312 0-.12-.076-.175-.167-.125zM20.398 49.194c-.091.05-.167.19-.167.311s.076.176.167.125c.09-.05.166-.19.166-.312 0-.12-.075-.175-.166-.124zM22.862 48.228c.09-.051.166-.191.166-.312 0-.12-.075-.175-.166-.125-.091.051-.167.191-.167.312 0 .12.076.175.167.125zM20.873 48.15c.063-.121.063-.261 0-.308-.063-.047-.17.012-.234.132-.063.121-.063.261 0 .308.064.047.17-.012.234-.132zM22.386 49.272c-.063.12-.063.26 0 .308.064.046.17-.012.234-.133.063-.12.063-.261 0-.308-.063-.047-.17.012-.234.133zM20.64 50.261c-.064.121-.064.261 0 .308.063.047.17-.012.233-.133.063-.12.063-.26 0-.307-.063-.047-.17.011-.234.132zM22.386 46.985c-.063.12-.063.26 0 .308.064.046.17-.012.234-.133.063-.12.063-.26 0-.308-.063-.046-.17.012-.234.133zM41.11 39.47c.092-.05.167-.191.167-.312 0-.12-.075-.175-.166-.125-.091.051-.167.191-.167.312s.076.175.167.125zM39.875 38.118c-.09.05-.166.19-.166.312 0 .12.075.175.166.124.091-.05.167-.19.167-.311s-.076-.176-.167-.125zM42.342 37.152c.091-.05.166-.191.166-.312 0-.12-.075-.175-.166-.125-.091.051-.166.191-.166.312s.075.175.166.125zM42.097 38.371c.063-.12.063-.26 0-.308-.064-.046-.17.012-.234.133-.063.12-.063.26 0 .308.063.046.17-.012.234-.133zM40.12 39.493c.064.047.171-.012.234-.132.064-.121.064-.261 0-.308-.063-.047-.17.012-.233.132-.064.121-.064.261 0 .308zM16.255 37.401 6.184 31.682a.35.35 0 0 0-.317-.015.347.347 0 0 0-.202.241l-1.362 6.163a.515.515 0 0 0 .25.557l9.869 5.602a.526.526 0 0 0 .475.028.51.51 0 0 0 .3-.363l1.316-5.933a.515.515 0 0 0-.25-.557l-.008-.004zm.072.518-1.315 5.934a.333.333 0 0 1-.194.233.337.337 0 0 1-.305-.015l-9.87-5.602a.333.333 0 0 1-.162-.359l1.362-6.163a.177.177 0 0 1 .095-.117c.024-.008.044-.015.068-.015.027 0 .055.007.083.023l10.071 5.719a.333.333 0 0 1 .163.358l.003.004zM6.533 30.638l.107.058a.2.2 0 0 0 .047.012.087.087 0 0 0 .08-.046.09.09 0 0 0-.036-.125l-.107-.059a.094.094 0 0 0-.127.035.09.09 0 0 0 .036.125zM7.685 31.293l.21.12a.2.2 0 0 0 .048.012.087.087 0 0 0 .079-.047.09.09 0 0 0-.036-.125l-.21-.12a.094.094 0 0 0-.126.035.09.09 0 0 0 .035.125zM7.06 30.934l.21.12a.2.2 0 0 0 .047.013.087.087 0 0 0 .079-.047.09.09 0 0 0-.036-.125l-.21-.12a.094.094 0 0 0-.126.034.09.09 0 0 0 .035.125zM12.093 33.794l.21.12a.2.2 0 0 0 .048.012.088.088 0 0 0 .08-.047.09.09 0 0 0-.037-.124l-.21-.121a.094.094 0 0 0-.126.035.09.09 0 0 0 .035.125zM14.608 35.223l.21.121a.2.2 0 0 0 .048.012.087.087 0 0 0 .079-.047.09.09 0 0 0-.036-.124l-.21-.121a.094.094 0 0 0-.127.035.09.09 0 0 0 .036.124zM12.722 34.152l.21.12a.2.2 0 0 0 .048.013.087.087 0 0 0 .079-.047.09.09 0 0 0-.036-.125l-.21-.12a.094.094 0 0 0-.126.035.09.09 0 0 0 .035.124zM15.867 35.936l.21.121s.031.012.047.012a.087.087 0 0 0 .08-.047.09.09 0 0 0-.036-.125l-.21-.12a.094.094 0 0 0-.127.035.09.09 0 0 0 .036.124zM15.238 35.582l.21.12s.031.012.047.012a.087.087 0 0 0 .08-.047.09.09 0 0 0-.036-.124l-.21-.12a.094.094 0 0 0-.127.034.09.09 0 0 0 .036.125zM13.348 34.507l.21.12a.2.2 0 0 0 .048.012.087.087 0 0 0 .079-.047.09.09 0 0 0-.036-.124l-.21-.121c-.043-.027-.099-.012-.126.035a.09.09 0 0 0 .035.125zM13.978 34.865l.21.12a.2.2 0 0 0 .048.013.087.087 0 0 0 .079-.047.09.09 0 0 0-.036-.125l-.21-.12a.094.094 0 0 0-.127.034.09.09 0 0 0 .036.125zM10.834 33.08l.21.122s.031.011.047.011a.087.087 0 0 0 .08-.047.09.09 0 0 0-.036-.124l-.21-.121a.094.094 0 0 0-.127.035.09.09 0 0 0 .036.125zM10.204 32.722l.21.121a.2.2 0 0 0 .047.012.087.087 0 0 0 .08-.047.09.09 0 0 0-.036-.125l-.21-.12a.094.094 0 0 0-.127.035.09.09 0 0 0 .036.124zM9.574 32.364l.21.12a.2.2 0 0 0 .047.012.087.087 0 0 0 .08-.046.09.09 0 0 0-.036-.125l-.21-.12c-.044-.028-.099-.012-.127.034a.09.09 0 0 0 .036.125zM8.945 32.01l.21.12a.2.2 0 0 0 .047.012.087.087 0 0 0 .08-.047.09.09 0 0 0-.036-.124l-.21-.121a.094.094 0 0 0-.127.035.09.09 0 0 0 .036.124zM11.463 33.435l.21.121a.2.2 0 0 0 .048.012.087.087 0 0 0 .08-.047.09.09 0 0 0-.037-.125l-.21-.12a.094.094 0 0 0-.126.034.09.09 0 0 0 .035.125zM8.315 31.651l.21.12a.2.2 0 0 0 .048.012.087.087 0 0 0 .079-.046.09.09 0 0 0-.036-.125l-.21-.12a.094.094 0 0 0-.127.034.09.09 0 0 0 .036.125zM16.695 36.197l-.107-.062c-.044-.027-.1-.012-.127.035a.09.09 0 0 0 .036.125l.107.062s.031.012.047.012a.087.087 0 0 0 .08-.047.09.09 0 0 0-.036-.125z" fill="#1E1E1E"/><path d="M6.338 36.602a.087.087 0 0 1-.08-.046.09.09 0 0 1 .037-.125l3.394-1.913a.094.094 0 0 1 .126.035.09.09 0 0 1-.035.125l-3.394 1.913s-.032.011-.048.011zM7.024 37.109a.087.087 0 0 1-.08-.047.09.09 0 0 1 .036-.124l2.594-1.461a.094.094 0 0 1 .127.035.09.09 0 0 1-.036.124l-2.594 1.461s-.031.012-.047.012z" fill="#fff"/><path d="M46.021 3.582h-1.188v1.827h1.188V3.582z" fill="#002B2A"/><path d="M46.658 4.127h-2.451V2.16c.86-.207 1.675-.222 2.451 0v1.967z" fill="#F9121C"/><path d="M46.686 2.168s-.031.02-.09.042a2.39 2.39 0 0 1-.258.094c-.111.035-.246.066-.396.093-.15.024-.32.04-.5.043a3.28 3.28 0 0 1-.898-.128 4.117 4.117 0 0 1-.258-.09c-.059-.027-.09-.039-.09-.043 0-.007.134.047.356.105a3.824 3.824 0 0 0 .887.113 3.473 3.473 0 0 0 .887-.12c.222-.063.352-.117.356-.11h.004zM45.019 4.123s-.02-.378-.02-.845c0-.468.008-.845.02-.845s.02.377.02.845c0 .467-.008.845-.02.845z" fill="#002B2A"/><path d="M45.487 4.135s-.02-.378-.02-.85c0-.47.008-.849.02-.849.011 0 .02.378.02.85 0 .471-.008.849-.02.849zM45.95 4.127s-.02-.378-.02-.85c0-.47.008-.848.02-.848.011 0 .02.377.02.849 0 .471-.009.85-.02.85zM46.338 4.127s-.02-.409-.02-.915c0-.507.008-.916.02-.916s.02.41.02.916-.008.915-.02.915zM44.58 4.115s-.02-.409-.02-.915c0-.507.008-.916.02-.916.011 0 .02.41.02.916s-.009.915-.02.915zM52.797 6.541l-.594-.611-.97.912.593.611.97-.912z" fill="#002B2A"/><path d="m52.821 7.143-1.223-1.259 1.045-.982c.539.34.955.752 1.224 1.259l-1.046.982z" fill="#F9121C"/><path d="M51.804 6.095s.23-.242.53-.53c.301-.285.547-.51.555-.503.008.008-.23.242-.53.53-.302.284-.547.51-.555.503zM52.037 6.336s.06-.062.159-.16c.102-.093.241-.222.4-.366L53 5.452a9.98 9.98 0 0 1 .122-.11c.032-.027.044-.038.048-.038.012.011-.234.249-.55.533-.16.14-.302.27-.409.359a2.24 2.24 0 0 1-.174.14zM52.347 6.656s.06-.063.162-.16c.103-.094.246-.226.404-.366.158-.137.297-.261.412-.363.047-.043.091-.078.127-.109l.047-.039c.008.004-.055.07-.158.164-.103.097-.246.226-.404.37-.159.14-.305.269-.412.358-.107.09-.174.145-.178.14v.005zM52.636 6.944s.233-.242.534-.526c.305-.284.555-.507.563-.499.008.008-.234.242-.535.526-.305.285-.554.507-.562.499zM37.807 6.452l-.644.56.889.99.644-.56-.889-.99z" fill="#002B2A"/><path d="M38.417 6.449 37.09 7.602l-.958-1.067c.364-.518.8-.908 1.327-1.153l.958 1.067z" fill="#F9121C"/><path d="M37.312 7.411s-.238-.237-.515-.541c-.277-.304-.495-.557-.487-.565.008-.008.237.238.515.541.277.304.495.557.487.565zM37.566 7.19s-.064-.06-.155-.164l-.356-.41c-.135-.155-.254-.3-.349-.412-.04-.047-.075-.09-.107-.125-.024-.031-.04-.047-.04-.047.013-.011.246.242.52.561.138.16.26.308.348.413.087.11.139.176.135.18l.004.003zM37.902 6.897s-.063-.058-.154-.164c-.091-.105-.218-.249-.357-.413l-.348-.416c-.04-.051-.075-.09-.103-.129l-.036-.047a1.1 1.1 0 0 1 .159.16 20.212 20.212 0 0 1 .709.834c.087.109.138.179.134.179l-.004-.004zM38.211 6.624s-.238-.237-.51-.549c-.274-.308-.492-.565-.484-.573.008-.007.238.238.51.55.274.307.492.565.484.572z" fill="#002B2A"/><path d="M45.197 23.855c5.416 0 9.806-4.318 9.806-9.646 0-5.327-4.39-9.646-9.806-9.646-5.415 0-9.805 4.32-9.805 9.646 0 5.328 4.39 9.646 9.805 9.646z" fill="#F9121C"/><path d="M45.197 23.069c4.974 0 9.006-3.967 9.006-8.86 0-4.892-4.032-8.859-9.006-8.859s-9.006 3.967-9.006 8.86c0 4.892 4.032 8.859 9.006 8.859z" fill="#fff"/><path d="M45.198 23.1c-4.982 0-9.038-3.99-9.038-8.89 0-4.901 4.056-8.89 9.038-8.89s9.037 3.989 9.037 8.89c0 4.9-4.055 8.89-9.037 8.89zm0-17.722c-4.95 0-8.978 3.962-8.978 8.828s4.027 8.832 8.978 8.832c4.95 0 8.974-3.963 8.974-8.832 0-4.87-4.028-8.828-8.974-8.828z" fill="#002B2A"/><path d="M39.542 10.672c.376-1.145 1.145-1.92 2.162-2.587 1.018-.666 2.408-.915 3.628-.814v7.141l-5.79-3.736v-.004z" fill="#F9121C"/><path d="M39.542 10.672c.376-1.145 1.145-1.92 2.162-2.587 1.018-.666 2.408-.915 3.628-.814v7.141l-5.79-3.736v-.004z" fill="#fff" opacity=".8"/><path d="m44.556 14.37-4.051-3.098 4.744 2.15.14.819-.833.128z" fill="#F9121C"/><path d="m40.505 11.272 4.23 2.447.514-.296-4.744-2.15z" fill="#000" opacity=".4"/><path d="M45.391 15.086a.837.837 0 0 0 .844-.83.837.837 0 0 0-.844-.83.837.837 0 0 0-.843.83c0 .459.377.83.843.83z" fill="#E49EB1"/><path d="M45.392 13.427s-.076 0-.202.034a.835.835 0 0 0-.61.647.811.811 0 0 0 .808.958.842.842 0 0 0 .487-.155.726.726 0 0 0 .174-.172.7.7 0 0 0 .111-.206.79.79 0 0 0-.119-.768.857.857 0 0 0-.455-.304c-.127-.03-.206-.027-.202-.034 0 0 .075-.012.206.019a.845.845 0 0 1 .637.654.82.82 0 0 1-.035.445.935.935 0 0 1-.115.214.873.873 0 0 1-.693.347.87.87 0 0 1-.693-.347.862.862 0 0 1-.15-.658.833.833 0 0 1 .638-.655c.13-.027.205-.02.205-.02h.008z" fill="#002B2A"/><path d="M45.391 13.637a.62.62 0 0 1 .626.615.622.622 0 0 1-.626.616.622.622 0 0 1-.625-.616c0-.339.28-.615.625-.615z" fill="#002B2A"/><path d="M45.348 14.01s-.174-5.34.08-6.466c0 0 .42 3.237-.08 6.467zM44.857 22.398h-.012l.024-.666h.02l-.032.666zm3.379-.537-.254-.62.02-.007.241.623h-.008v.004zm-6.701-.32h-.012l.3-.6.017.008-.31.592h.005zm9.572-1.53-.483-.468.011-.012.48.472-.008.007zm-12.25-.581-.012-.012.527-.42.008.011-.523.42zm14.115-2.26-.633-.233.007-.016.634.238v.011h-.008zm-15.695-.74v-.015l.65-.172v.012l-.65.175zm15.545-2.563v-.012l.677-.039v.02l-.677.03zm0-.012v-.016l.673-.039v.016l-.673.039zm-15.074-.701-.669-.101v-.016l.673.101v.016h-.004zm14.242-2.291-.008-.012.602-.307.008.015-.602.304zm-13.125-.608-.57-.358.008-.012.57.359-.008.011zm11.129-1.792-.012-.008.424-.522.012.008-.424.522zm-8.915-.417-.372-.557.012-.008.376.554-.016.007v.004zm6.1-.981h-.013l.17-.647h.016l-.174.647zm-3.161-.145-.111-.658h.016l.11.655h-.015v.003z" fill="#002B2A"/></g><defs><clipPath id="a"><path fill="#fff" transform="translate(3 2)" d="M0 0h52v51H0z"/></clipPath></defs></svg>