<svg width="54" height="50" fill="none" xmlns="http://www.w3.org/2000/svg"><path d="M50.897 27.583V15.958A12.916 12.916 0 0 0 37.981 3.042H16.021A12.917 12.917 0 0 0 3.105 15.958v18.084a12.916 12.916 0 0 0 12.917 12.916h16.172" stroke="#EFEFF0" stroke-opacity=".1" stroke-width="4.5" stroke-linecap="round" stroke-linejoin="round"/><path d="m3.777 37.917 7.079-8.267a5.683 5.683 0 0 1 7.156-.697 5.683 5.683 0 0 0 7.155-.698l6.02-6.02a10.333 10.333 0 0 1 13.33-1.11l6.38 4.934m-34.203-5.787a4.285 4.285 0 0 0 4.262-4.314 4.29 4.29 0 1 0-4.262 4.315z" stroke="#EFEFF0" stroke-opacity=".1" stroke-width="4.5" stroke-linecap="round" stroke-linejoin="round"/><path d="M42.713 46.7v-6.9h-6.799v-2.546h6.8v-6.829h2.603v6.829h6.872V39.8h-6.872V46.7h-2.604z" fill="#EFEFF0" fill-opacity=".1"/></svg>