<svg width="29" height="20" fill="none" xmlns="http://www.w3.org/2000/svg"><g clip-path="url(#a)"><path d="m28.77 10.517-4.543-5.023a.886.886 0 0 0-.656-.294h-3.655V.89c0-.49-.4-.89-.887-.89H.887a.891.891 0 0 0 0 1.78h17.264V15.62h-7.754a2.838 2.838 0 0 0-.807-.82 2.77 2.77 0 0 0-1.562-.48h-.026a2.831 2.831 0 0 0-2.662 1.896A2.84 2.84 0 0 0 8.01 20a2.842 2.842 0 0 0 2.822-2.6h9.918a2.842 2.842 0 0 0 2.82 2.6 2.842 2.842 0 0 0 2.822-2.6h1.72c.489 0 .888-.4.888-.89v-5.397a.867.867 0 0 0-.23-.596zM9.074 17.15c0 .587-.479 1.068-1.055 1.068-.577 0-1.056-.48-1.056-1.06A1.056 1.056 0 0 1 8.02 16.1a1.068 1.068 0 0 1 .994.704v.018c.035.107.052.214.052.338l.01-.008zm15.56.008c0 .588-.479 1.069-1.055 1.069-.577 0-1.056-.48-1.056-1.06 0-.124.018-.24.053-.347v-.018a1.068 1.068 0 0 1 .994-.703 1.056 1.056 0 0 1 1.056 1.06h.008zm2.59-1.54h-1.268a2.83 2.83 0 0 0-2.369-1.3h-.026a2.77 2.77 0 0 0-1.561.48c-.32.214-.595.49-.808.82h-1.268V6.99h3.255l4.046 4.47v4.159z" fill="#D71921"/><path d="M5.43 13.49H2.192a.891.891 0 0 1 0-1.78H5.43a.891.891 0 0 1 0 1.78zM5.429 9.59H2.067a.891.891 0 0 1 0-1.78h3.362a.891.891 0 0 1 0 1.78zM5.43 5.681H2.192a.891.891 0 0 1 0-1.78H5.43a.891.891 0 0 1 0 1.78z" fill="#191919"/></g><defs><clipPath id="a"><path fill="#fff" d="M0 0h29v20H0z"/></clipPath></defs></svg>