<svg width="61" height="55" fill="none" xmlns="http://www.w3.org/2000/svg"><g clip-path="url(#a)"><path d="M58.903 40.547c-.072-.214-.272-.428-.6-.616l-13.159-7.688-.112-.066c3.806-2.604 7.453-5.355 9.2-7.122 2.591-2.609 3.165-4.647 1.91-5.594a5.05 5.05 0 0 0-.236-.148c-.015-.01-.026-.02-.046-.03a.223.223 0 0 0-.061-.026c-.02-.01-.041-.02-.057-.03-.865-.408-3.001-1.111-4.61-.872-5.255.8-14.726 4.086-18.445 9.782-1.337 2.048-1.885 4.534-1.956 6.577L12.546 40.14a3.885 3.885 0 0 0-.61.24c-.947.366-2.459 2.44-2.003 2.633l1.645 1.233 2.57 1.503 9.697 5.665c1.06.622 3.033.764 4.487.331L50.282 45.2l5.527-1.651.46-.138c1.456-.432 3.151-2.633 2.623-2.873l.01.01zM49.58 21.601a7.207 7.207 0 0 1 1.26-.087c.717.642.313 1.946-1.321 3.602-2.69 2.705-7.648 5.324-11.09 5.848a7.351 7.351 0 0 1-1.178.092c-.66-.642-.215-1.941 1.24-3.607 2.904-3.327 7.647-5.329 11.09-5.849z" fill="#B1ADAD"/><path d="m49.498 35.34-20.576-9.735-.25-.143a6.574 6.574 0 0 0-1.425-.596c-1.121-.32-2.274-.341-3.073-.015-.092.035-.18.076-.261.127l-.097.056L2.405 35.101c-.646.53-.461 3.546.164 3.831l2.653 1.794 3.806 2.185 14.347 8.238c1.567.902 3.657 1.116 4.759.484l16.575-9.517 4.175-2.4.348-.198c1.101-.632.989-3.831.266-4.177z" fill="#6D861D"/><path d="M23.806 23.74 3.72 35.274c-.496.286-.276 1.055.84 1.697l1.281.734 17.774-.398.19-13.562v-.005zM24.282 48.291c1.117.642 2.453.77 2.95.484L42.83 39.82l-32.06.713 13.512 7.76zM48.156 36.757l.175-.102c.496-.285.276-1.055-.84-1.691L28.911 24.296l-.18 12.894 19.424-.433z" fill="#B3E40C"/><path d="m24.82 23.154-1.02.586-.189 13.562-17.774.397 4.928 2.828 32.06-.713 5.326-3.057-19.423.433.18-12.894-1.143-.653c-1.117-.642-2.453-.769-2.95-.484l.005-.005z" fill="#EBF0A8"/><path d="M27.253 22.528c-1.122-.321-2.274-.342-3.074-.016-.092.036-.179.077-.26.128l-.098.056L2.82 34.755c-1.096.631-.728 1.829.84 2.73l1.562.897 3.806 2.186 14.347 8.238c1.568.901 3.657 1.115 4.759.484l16.575-9.517 4.175-2.4.348-.198c1.102-.632.727-1.83-.84-2.731l-19.47-11.183-.25-.142a6.57 6.57 0 0 0-1.424-.596l.005.005zm1.66 1.768L47.49 34.963c1.116.642 1.342 1.406.84 1.691l-.175.102-5.327 3.057-15.597 8.956c-.497.285-1.834.158-2.95-.484L10.77 40.527l-4.928-2.828-1.28-.733c-1.117-.642-1.343-1.406-.84-1.697L23.8 23.735l1.02-.586c.497-.285 1.834-.158 2.95.484l1.142.652v.01z" fill="#EBF0A8"/><path d="M22.617 37.129c-1.132 0-2.054.525-2.054 1.177s.917 1.177 2.054 1.177c1.137 0 2.049-.53 2.049-1.177s-.917-1.177-2.049-1.177z" fill="#A80000"/><path d="M29.01 4.421s-.057-.025-.082-.04c.051.025.102.056.148.081-.025-.015-.046-.03-.066-.04z" fill="#C60D05"/><path d="M14.908 17.938C13.95 9.653 20.471 5.206 25.076 4.043c1.419-.356 2.7-.229 3.775.296-1.199-.591-3.919-1.62-5.322-1.264-4.6 1.162-11.371 5.946-10.413 14.23.686 5.996 6.059 14.606 7.565 15.238.143.06 1.608.78 1.798.637-.943.173-6.874-9.237-7.566-15.238l-.005-.006z" fill="#A80000"/><path d="M25.824 7.667c1.244.937 1.91 2.827 1.634 5.237-.466 3.938-3.278 7.739-6.29 8.503-.39.097-.758.137-1.102.132.753.591 1.727.8 2.9.505 3.011-.764 5.823-4.565 6.29-8.503.394-3.388-1.086-5.762-3.432-5.874z" fill="#C60D05"/><path d="m29.435 4.681-.092-.06c-.087-.057-.175-.108-.262-.159a2.144 2.144 0 0 0-.148-.081c-.026-.016-.057-.026-.082-.041-1.076-.525-2.356-.652-3.775-.296-4.6 1.162-11.12 5.615-10.168 13.893.687 6.002 6.623 15.412 7.566 15.238 2.269-.412 8.943-14.346 9.645-20.358.445-3.795-.65-6.76-2.68-8.136h-.004zm-.185 8.86c-.466 3.938-3.278 7.738-6.29 8.503-1.173.295-2.146.086-2.899-.505-1.183-.932-1.808-2.822-1.721-5.242.174-4.835 3.278-7.749 6.29-8.503.42-.107.815-.143 1.194-.122 2.345.107 3.82 2.48 3.431 5.874l-.005-.005z" fill="#D71921"/></g><defs><clipPath id="a"><path fill="#fff" transform="translate(2 3)" d="M0 0h57v49H0z"/></clipPath></defs></svg>